<?xml version="1.0" standalone="no"?>
<!DOCTYPE svg PUBLIC "-//W3C//DTD SVG 20010904//EN"
 "http://www.w3.org/TR/2001/REC-SVG-20010904/DTD/svg10.dtd">
<svg version="1.0" xmlns="http://www.w3.org/2000/svg"
 width="400.000000pt" height="271.000000pt" viewBox="0 0 400.000000 271.000000"
 preserveAspectRatio="xMidYMid meet">

<g transform="translate(0.000000,271.000000) scale(0.100000,-0.100000)"
fill="#000000" stroke="none">
<path d="M0 2349 l0 -360 22 15 c29 20 61 20 115 0 47 -18 78 -66 67 -108 -15
-62 -122 -107 -158 -67 -10 11 -24 17 -32 14 -20 -7 -21 -533 -1 -533 6 0 35
8 62 17 28 9 82 17 120 18 80 2 239 49 320 94 28 16 72 30 100 33 66 6 140 54
263 171 53 51 127 121 166 157 38 36 95 90 126 120 68 66 125 112 199 162 31
21 74 50 95 65 68 48 130 83 148 83 23 0 49 -40 42 -65 -3 -11 -35 -43 -71
-70 -36 -28 -82 -64 -102 -81 -20 -17 -56 -44 -81 -59 -25 -16 -39 -30 -33
-32 9 -3 8 -11 -3 -29 -20 -29 -22 -29 44 -4 29 11 94 27 145 36 50 9 133 27
182 40 114 30 131 30 151 -1 14 -22 15 -32 5 -64 -12 -41 -34 -55 -101 -66
-19 -3 -36 -10 -38 -15 -2 -5 -10 -6 -18 -3 -16 6 -104 -24 -104 -36 0 -11
-68 -33 -80 -26 -5 3 -10 2 -10 -4 0 -5 -9 -8 -20 -6 -12 2 -18 0 -14 -6 4 -7
-5 -9 -24 -6 -23 4 -29 2 -26 -8 8 -20 -32 -37 -67 -30 -17 4 -42 23 -61 46
-17 21 -34 36 -38 34 -13 -8 -33 24 -26 40 3 9 22 23 42 31 20 8 34 18 31 20
-11 11 -75 -28 -85 -51 -7 -14 -9 -39 -5 -56 5 -25 2 -35 -13 -46 -18 -13 -18
-14 6 -8 20 4 28 0 42 -24 15 -28 15 -30 0 -36 -15 -6 -14 -9 5 -24 19 -16 48
-18 290 -19 147 -1 298 1 336 4 l67 6 -70 75 c-38 41 -70 79 -70 84 0 12 17
11 25 -1 3 -5 11 -10 17 -10 7 0 6 6 -2 15 -10 12 -10 15 2 15 7 0 62 -52 122
-116 l109 -116 118 118 118 118 -50 57 c-70 81 -188 203 -145 150 23 -29 33
-48 27 -54 -7 -7 -16 -6 -26 3 -11 9 -19 10 -28 1 -10 -8 -17 -7 -25 1 -8 8
-15 8 -25 0 -10 -9 -16 -9 -25 0 -9 9 -3 21 25 53 21 22 -11 -7 -70 -65 -59
-57 -107 -100 -107 -94 0 6 9 20 20 32 11 11 16 23 11 27 -5 3 -11 -1 -14 -7
-2 -7 -8 -10 -12 -6 -9 8 192 218 208 218 5 0 21 -10 36 -23 35 -29 249 -265
261 -287 7 -14 -14 -40 -113 -136 -68 -65 -137 -132 -156 -149 l-33 -30 -23
27 -23 26 -11 -24 c-15 -33 -60 -51 -146 -57 -65 -6 -241 -32 -275 -41 -8 -3
35 -4 95 -4 131 1 227 -9 237 -25 9 -14 1 -56 -14 -74 -16 -20 -74 -32 -188
-39 -58 -4 -115 -10 -128 -15 -31 -12 -109 -11 -116 0 -8 13 -29 8 -103 -25
-17 -8 -41 -14 -53 -14 -12 0 -29 -4 -39 -10 -36 -19 -82 -20 -131 -4 -51 17
-114 14 -133 -5 -6 -6 -6 -20 0 -38 9 -24 6 -35 -19 -70 -38 -56 -59 -55 -121
7 -28 29 -58 49 -66 47 -21 -5 -71 20 -72 36 -1 6 -7 -6 -14 -28 -8 -22 -14
-33 -15 -25 0 12 -3 11 -15 -3 -13 -18 -14 -18 -34 2 -12 12 -21 30 -21 40 0
10 -9 29 -21 42 l-20 24 12 -25 c11 -22 11 -24 -4 -12 -13 11 -16 10 -22 -7
-3 -12 -18 -24 -31 -27 -18 -5 -23 -11 -19 -23 4 -9 9 -22 12 -28 8 -20 -15
-15 -26 5 -9 15 -11 14 -11 -8 -1 -24 -2 -24 -10 -4 -5 12 -15 26 -22 30 -11
6 -11 5 0 -9 20 -24 7 -38 -24 -27 -42 16 -53 12 -74 -30 -23 -46 -28 -47 -58
-20 -12 12 -22 17 -22 12 0 -5 -12 -7 -27 -5 -18 3 -35 -2 -48 -14 -11 -10
-29 -19 -40 -20 -48 -3 -65 -8 -65 -20 0 -21 -31 -15 -56 12 -17 18 -25 44
-32 102 l-9 78 -3 -70 c-2 -64 -3 -67 -12 -37 -13 39 -19 40 -36 5 -9 -20 -12
-123 -12 -404 l0 -377 31 -11 c18 -6 50 -12 73 -12 23 -1 55 -4 71 -8 23 -5
13 -8 -45 -13 -105 -9 -130 -20 -130 -58 0 -16 1 -30 3 -30 1 0 29 14 62 30
33 16 76 33 95 36 19 4 40 10 46 15 5 4 35 2 65 -6 29 -8 75 -15 102 -15 28 0
62 -8 84 -20 49 -26 60 -25 91 8 51 54 155 46 202 -15 12 -15 11 -15 -9 2
l-23 20 -19 -27 c-12 -16 -26 -25 -34 -21 -8 3 -13 9 -10 13 3 4 -1 10 -8 13
-15 5 -17 -49 -4 -70 6 -9 2 -13 -12 -13 -11 0 -22 8 -25 18 -3 10 -4 7 -3 -8
2 -19 -5 -27 -28 -35 -22 -7 -29 -16 -28 -30 3 -23 -13 -46 -41 -62 -15 -8 2
-11 72 -12 69 -1 93 2 99 13 10 17 83 59 91 52 2 -3 -3 -8 -12 -12 -9 -3 -16
-12 -16 -20 0 -8 -4 -13 -9 -12 -5 2 -11 -1 -12 -7 -6 -15 60 -18 77 -4 10 8
14 8 14 0 0 -14 47 -14 56 0 3 6 1 16 -6 22 -10 9 -11 9 -5 -2 6 -10 4 -12 -4
-6 -7 4 -10 17 -7 29 5 20 4 20 -9 2 -8 -10 -12 -23 -9 -27 3 -5 -2 -6 -10 -3
-20 8 -29 38 -21 65 5 14 2 25 -6 30 -11 7 -11 9 2 9 9 0 22 15 29 33 8 17 19
39 26 47 6 8 18 34 25 58 7 23 16 42 20 42 4 0 5 8 2 18 -6 24 49 90 107 131
51 35 93 39 159 16 64 -22 215 -98 224 -112 4 -7 14 -13 21 -13 7 0 21 -8 32
-18 27 -25 78 -42 95 -31 8 5 19 9 24 9 6 0 3 -4 -5 -10 -18 -11 -13 -17 25
-25 29 -6 29 -6 10 11 -20 16 -20 16 3 11 12 -3 22 -1 22 4 0 5 3 8 8 8 20 -3
25 2 12 12 -11 8 -1 9 37 5 43 -4 51 -2 46 10 -4 10 2 14 21 14 17 0 26 5 26
16 0 8 4 13 9 10 5 -3 14 1 21 9 7 9 21 13 31 10 15 -5 18 -2 13 12 -5 14 -4
15 4 3 13 -18 5 -33 -14 -26 -13 5 -17 -2 -12 -21 0 -5 11 -7 22 -6 13 2 16 0
6 -4 -8 -3 -21 -11 -29 -17 -11 -8 -13 -8 -7 2 10 16 1 15 -34 -3 -17 -9 -30
-20 -30 -26 0 -5 -6 -9 -12 -8 -7 1 -20 1 -28 0 -13 -1 -13 -2 0 -12 11 -8 9
-9 -10 -3 -14 4 -27 10 -30 15 -3 5 -14 0 -23 -11 -21 -24 -22 -37 -3 -21 10
8 16 9 21 1 3 -5 1 -10 -6 -10 -9 0 -10 -3 -3 -10 6 -6 23 -6 48 1 21 6 40 8
44 5 3 -3 -3 -6 -13 -6 -33 0 -1 -21 36 -24 19 -1 53 -8 75 -14 23 -7 57 -12
75 -11 32 1 175 -28 154 -31 -5 -1 -20 -3 -32 -6 -13 -2 -23 1 -23 7 0 5 -4 7
-10 4 -5 -3 -10 -13 -10 -21 0 -11 15 -14 74 -12 41 2 72 6 69 11 -2 4 -13 7
-24 7 -10 0 -19 4 -19 8 0 5 45 8 100 8 55 -1 101 2 102 6 2 5 22 10 44 12 34
3 163 59 199 85 18 14 45 21 45 11 0 -5 -10 -10 -22 -12 -13 -2 -22 -9 -21
-16 2 -6 -6 -12 -16 -12 -30 0 -51 -11 -51 -26 0 -8 -3 -13 -7 -13 -20 3 -34
-2 -29 -10 3 -5 16 -7 28 -3 14 3 19 2 14 -6 -4 -7 -18 -12 -31 -12 -13 0 -27
-4 -30 -10 -3 -5 -21 -9 -39 -8 -18 1 -47 -6 -65 -15 -30 -15 -32 -15 -44 4
-13 20 -51 24 -97 9 -20 -6 -14 -8 28 -9 29 -1 52 -6 52 -12 0 -5 -4 -7 -10
-4 -5 3 -10 -2 -10 -12 0 -11 -3 -14 -8 -7 -8 11 -102 13 -102 2 0 -4 -14 -2
-32 3 -24 7 -36 5 -49 -7 -15 -13 -17 -13 -23 2 -5 12 -10 14 -19 5 -10 -8
-17 -7 -25 1 -9 9 -12 9 -12 -2 0 -9 -5 -8 -15 6 -8 11 -15 14 -15 6 0 -6 -3
-11 -7 -10 -21 6 -73 -13 -73 -27 0 -19 -7 -19 -27 1 -9 8 -22 13 -31 9 -8 -3
-21 0 -28 6 -8 6 -14 8 -14 4 0 -4 -6 -3 -12 2 -15 11 -58 10 -76 -1 -7 -4
-12 -3 -12 2 0 12 -38 23 -45 13 -2 -4 -20 -8 -39 -9 -27 -1 -38 4 -47 20
l-12 22 -8 -22 c-7 -19 -12 -20 -34 -12 -32 12 -38 12 -31 2 2 -4 -4 -8 -15
-8 -10 0 -19 6 -19 13 0 7 -7 10 -15 7 -8 -4 -17 1 -21 9 -4 13 -11 13 -36 5
-23 -8 -32 -8 -38 3 -5 7 -21 14 -37 16 -15 3 -40 10 -55 18 -17 8 -28 9 -28
3 0 -6 -7 -7 -17 -3 -10 4 -26 7 -35 7 -11 0 -15 4 -11 15 4 11 3 14 -6 9 -6
-4 -19 -2 -28 6 -12 9 -15 9 -9 1 4 -8 1 -13 -8 -13 -9 0 -16 -6 -16 -12 0
-10 -3 -9 -9 1 -7 11 -10 11 -15 0 -3 -8 -3 -3 0 11 4 14 3 22 -1 18 -5 -4
-14 0 -21 10 -12 15 -12 14 -8 -8 4 -17 3 -21 -3 -12 -6 7 -17 10 -29 6 -10
-4 -16 -4 -12 1 4 4 2 15 -5 23 -10 13 -9 15 6 9 11 -4 16 -3 12 4 -4 5 -16 7
-27 3 -15 -4 -18 -3 -13 6 5 9 4 11 -4 6 -6 -4 -9 -11 -6 -16 3 -4 -1 -11 -7
-13 -10 -4 -10 -8 1 -15 11 -8 9 -11 -10 -15 -24 -4 -24 -4 -1 -6 13 0 20 -6
17 -11 -4 -6 -11 -8 -16 -5 -5 3 -6 -1 -3 -9 9 -23 34 -7 35 23 0 23 1 24 8 6
10 -25 -8 -55 -31 -55 -10 0 -18 -5 -18 -11 0 -5 -6 -7 -12 -4 -7 4 -2 -2 12
-13 14 -12 21 -24 17 -28 -4 -4 2 -14 14 -22 18 -12 22 -12 35 4 14 18 15 18
10 -1 -3 -11 -1 -27 4 -35 6 -10 10 -11 10 -2 0 6 5 12 12 12 6 0 8 -3 5 -7
-8 -8 12 -33 26 -33 7 0 7 4 -1 12 -17 17 -15 29 3 22 8 -4 15 -15 15 -25 0
-10 5 -19 10 -19 6 0 10 5 10 11 0 5 5 7 10 4 6 -3 10 -1 10 4 0 6 5 11 11 11
6 0 8 -9 4 -20 -4 -11 -2 -20 4 -20 6 0 11 7 11 15 0 16 12 20 23 8 4 -3 2
-12 -4 -20 -9 -10 -8 -13 2 -13 8 0 23 12 33 28 10 15 15 19 12 8 -6 -16 -4
-17 10 -6 13 12 17 11 25 -1 8 -12 10 -12 19 1 9 13 11 13 20 0 5 -8 10 -10
10 -5 0 15 53 13 63 -2 4 -7 18 -12 30 -12 12 1 31 -2 41 -6 15 -7 17 -5 11 6
-7 11 -6 12 6 2 22 -18 1355 -18 1362 -1 4 10 6 10 6 1 1 -9 142 -12 616 -13
l615 0 0 1321 c0 1250 -1 1321 -18 1314 -65 -28 -103 -17 -126 35 l-17 40
-731 0 -730 0 -20 -25 c-11 -14 -28 -25 -38 -25 -11 0 -27 11 -36 25 l-16 25
-408 0 -407 0 -11 -25 c-21 -47 -100 -43 -95 4 3 21 0 21 -161 21 l-164 0 -41
-40 c-23 -23 -41 -45 -41 -50 0 -6 -9 -10 -21 -10 -15 0 -26 13 -41 50 l-21
51 -341 -4 c-188 -2 -352 -6 -366 -9 -79 -19 -106 -20 -119 -4 -7 9 -17 16
-22 16 -5 0 -9 -160 -9 -361z m3014 311 c22 -8 25 -14 20 -39 -7 -35 15 -51
69 -51 20 0 40 -7 48 -16 11 -14 10 -20 -13 -39 -28 -24 -120 -49 -161 -43
-13 1 -36 -7 -51 -20 -58 -45 -102 -13 -47 34 35 29 42 77 15 92 -14 8 -14 13
-4 33 7 13 14 26 16 27 2 3 69 29 81 32 1 0 13 -4 27 -10z m-266 -21 c-2 -6
-7 -10 -11 -10 -4 1 -14 1 -23 1 -8 0 -12 5 -9 10 8 13 48 13 43 -1z m-668
-30 c0 -5 -5 -7 -11 -3 -6 3 -3 -5 6 -19 21 -32 13 -47 -26 -47 -36 0 -39 23
-7 57 23 25 38 30 38 12z m1190 -11 c0 16 55 13 55 -3 0 -5 7 -25 14 -43 12
-29 12 -35 0 -43 -23 -14 -38 -11 -64 16 -17 16 -25 35 -25 57 0 25 3 29 10
18 7 -11 10 -11 10 -2z m-1410 -24 c0 -31 -68 -81 -96 -70 -25 10 -15 35 24
55 36 19 72 27 72 15z m-555 -23 c3 -5 1 -12 -5 -16 -5 -3 -10 1 -10 9 0 18 6
21 15 7z m1101 -8 c20 -7 17 -32 -6 -71 -14 -22 -26 -32 -38 -29 -9 3 -38 10
-65 17 -58 15 -67 27 -32 40 14 5 23 15 20 20 -4 6 -1 18 6 26 10 12 23 14 57
9 25 -4 51 -9 58 -12z m385 0 c30 -18 43 -39 33 -54 -16 -27 -94 16 -94 52 0
24 23 24 61 2z m-670 -23 c5 0 9 -4 9 -10 0 -5 -16 -10 -36 -10 -32 0 -35 2
-24 15 7 9 20 13 27 10 8 -3 19 -5 24 -5z m536 -26 c7 -18 -67 -94 -92 -94
-20 0 -19 14 4 34 11 10 25 31 31 47 14 32 47 40 57 13z m-567 -54 c0 -10 -4
-21 -9 -24 -4 -3 -8 8 -7 23 1 31 16 32 16 1z m35 20 c-3 -5 -10 -10 -16 -10
-5 0 -9 5 -9 10 0 6 7 10 16 10 8 0 12 -4 9 -10z m-70 -20 c-3 -5 -11 -10 -16
-10 -6 0 -7 5 -4 10 3 6 11 10 16 10 6 0 7 -4 4 -10z m115 0 c0 -5 -4 -10 -10
-10 -5 0 -10 5 -10 10 0 6 5 10 10 10 6 0 10 -4 10 -10z m31 -13 c-10 -9 -11
-8 -5 6 3 10 9 15 12 12 3 -3 0 -11 -7 -18z m-227 -8 c-3 -5 -9 -7 -13 -5 -4
3 -18 -8 -30 -25 -12 -17 -27 -27 -33 -23 -7 5 -9 2 -5 -9 5 -14 3 -15 -18 -5
-14 6 -25 17 -25 25 0 7 -5 13 -11 13 -5 0 -7 -4 -4 -10 3 -5 2 -10 -4 -10 -5
0 -12 4 -15 9 -9 13 26 23 38 11 15 -15 26 -12 19 5 -3 9 -2 15 3 14 10 -2 39
7 64 20 18 10 42 3 34 -10z m281 11 c3 -5 -1 -10 -9 -10 -8 0 -18 5 -21 10 -3
6 1 10 9 10 8 0 18 -4 21 -10z m-860 -24 c18 -8 41 -26 51 -41 15 -22 15 -28
3 -40 -16 -16 -155 -55 -194 -55 -65 0 -82 41 -42 101 41 61 95 71 182 35z
m609 0 c-4 -11 0 -13 15 -9 12 3 21 1 21 -4 0 -11 -45 -11 -56 0 -5 4 -2 12 6
17 20 13 20 12 14 -4z m212 -16 c8 0 14 5 14 10 0 6 5 10 11 10 6 0 9 -6 6
-14 -6 -15 28 -11 51 7 9 7 11 6 6 -7 -3 -9 -17 -19 -29 -22 -22 -6 -23 -6 -7
-35 10 -16 24 -29 32 -30 11 0 12 -2 2 -6 -15 -6 -62 34 -62 53 0 6 -13 17
-30 24 -17 7 -27 17 -23 23 5 8 8 7 11 -1 2 -7 10 -12 18 -12z m-49 -12 c-3
-8 -6 -5 -6 6 -1 11 2 17 5 13 3 -3 4 -12 1 -19z m249 -6 c1 -11 -5 -23 -13
-26 -8 -4 -11 -11 -7 -18 5 -9 2 -8 -10 1 -12 10 -20 11 -28 3 -14 -14 -37 12
-38 41 0 26 20 10 21 -16 0 -12 3 -16 6 -9 2 6 10 9 16 5 6 -4 8 0 4 10 -4 11
-1 17 8 17 8 0 15 5 15 11 0 20 25 2 26 -19z m-593 -26 c5 -8 9 -8 15 1 5 8
11 8 25 -2 15 -11 15 -14 3 -25 -9 -6 -20 -9 -26 -5 -5 3 -15 3 -21 -1 -8 -5
-8 -9 1 -14 7 -4 9 -13 6 -19 -13 -20 -23 -3 -21 34 3 34 -7 46 -20 25 -3 -5
0 -10 7 -10 10 0 11 -2 0 -8 -7 -5 -10 -16 -6 -25 4 -11 1 -18 -7 -19 -8 0
-18 -2 -24 -3 -5 -2 -17 -3 -25 -4 -13 -1 -13 -2 0 -11 8 -5 13 -10 10 -11 -3
0 -15 -2 -27 -5 -13 -2 -23 1 -23 8 0 6 -11 1 -24 -11 -15 -14 -26 -19 -31
-12 -3 6 1 11 9 11 8 0 21 14 30 30 19 38 11 38 -34 -2 l-35 -33 37 40 c36 39
108 90 94 66 -9 -14 -1 -14 25 0 11 5 17 14 14 19 -7 12 39 -1 48 -14z m197 9
c0 -8 -4 -15 -8 -15 -5 0 -9 7 -9 15 0 8 4 15 9 15 4 0 8 -7 8 -15z m-53 -16
c-18 -10 -18 -12 2 -26 12 -8 21 -19 21 -24 0 -6 -7 -3 -16 6 -10 9 -25 14
-35 12 -11 -3 -19 -3 -19 -1 0 11 37 42 50 43 11 0 10 -2 -3 -10z m199 -44
c-10 -39 -26 -29 -26 16 0 37 1 39 16 24 10 -10 14 -24 10 -40z m1529 20 c0
-26 -4 -30 -31 -33 -40 -4 -60 18 -44 48 9 16 19 20 43 18 28 -3 32 -7 32 -33z
m-2908 -47 c-3 -8 -6 -5 -6 6 -1 11 2 17 5 13 3 -3 4 -12 1 -19z m1323 2 c0
-5 -2 -10 -4 -10 -3 0 -8 5 -11 10 -3 6 -1 10 4 10 6 0 11 -4 11 -10z m-1795
-100 c3 -5 -3 -10 -15 -10 -12 0 -18 5 -15 10 3 6 10 10 15 10 5 0 12 -4 15
-10z m815 -124 c0 -22 -35 -60 -48 -52 -18 11 -14 44 6 55 24 15 42 13 42 -3z
m-452 -13 c2 -8 -5 -13 -17 -13 -12 0 -21 6 -21 16 0 18 31 15 38 -3z m2402
-31 c0 -10 -6 -19 -14 -19 -8 0 -11 8 -8 19 2 10 8 18 13 18 5 0 9 -8 9 -18z
m-2390 -62 c13 -25 5 -40 -21 -40 -51 0 -80 47 -42 69 21 11 48 -1 63 -29z
m1388 2 c8 8 15 8 25 0 10 -9 16 -9 25 0 8 8 15 8 27 -2 11 -9 18 -10 29 -1
11 9 27 -4 80 -63 36 -41 66 -78 66 -83 0 -12 -115 -123 -127 -123 -5 0 -14 5
-20 11 -8 8 -13 7 -18 -2 -5 -7 -4 -10 3 -5 6 3 14 1 17 -5 7 -11 -64 -92 -75
-87 -13 6 -210 219 -210 227 0 5 30 41 66 80 61 66 68 70 83 57 13 -12 20 -13
29 -4z m805 -173 c18 -25 36 -117 29 -151 -4 -18 -62 -43 -73 -31 -11 13 2
214 14 210 6 -2 19 -15 30 -28z m1078 -5 c26 -31 -36 -75 -103 -72 -31 2 -50
-3 -62 -15 -17 -17 -40 -21 -81 -17 -65 6 -21 60 50 60 28 0 45 5 48 14 14 37
124 59 148 30z m-983 -238 c8 -37 -68 -71 -105 -48 -17 11 1 36 42 57 37 19
59 16 63 -9z m237 8 c27 -18 32 -49 11 -77 -7 -9 -11 -28 -8 -42 5 -31 -9 -32
-52 -6 -27 17 -37 18 -79 8 -66 -15 -74 -3 -41 61 22 42 32 52 53 53 14 0 35
4 46 9 30 13 43 12 70 -6z m-316 -95 c13 -24 13 -37 -4 -120 l-18 -94 22 -35
c11 -19 21 -43 21 -54 0 -27 -22 -96 -29 -92 -4 3 -8 34 -9 70 -2 36 -8 80
-13 98 -17 58 -39 182 -39 221 0 36 2 38 27 35 17 -2 33 -13 42 -29z m706 -80
c0 -7 -8 -15 -18 -17 -25 -5 -68 25 -61 42 5 12 11 12 42 2 20 -7 37 -19 37
-27z m285 -99 c0 -30 -23 -56 -40 -45 -11 7 -13 57 -3 94 l6 24 19 -22 c10
-13 18 -36 18 -51z m-1927 -107 c-13 -2 -35 -2 -50 0 -16 2 -5 4 22 4 28 0 40
-2 28 -4z m194 -9 c-3 -3 -12 -4 -19 -1 -8 3 -5 6 6 6 11 1 17 -2 13 -5z
m-1523 -20 c4 -11 1 -14 -11 -12 -9 2 -18 9 -21 16 -6 18 25 15 32 -4z m1109
9 c-7 -2 -19 -2 -25 0 -7 3 -2 5 12 5 14 0 19 -2 13 -5z m77 -3 c0 -5 -7 -10
-16 -10 -8 0 -12 5 -9 10 3 6 10 10 16 10 5 0 9 -4 9 -10z m1866 -1 c19 -16
18 -44 -3 -64 -23 -23 -120 -16 -139 10 -12 16 -8 20 29 39 50 25 94 31 113
15z m-1793 -6 c-13 -2 -33 -2 -45 0 -13 2 -3 4 22 4 25 0 35 -2 23 -4z m100 0
c-7 -2 -21 -2 -30 0 -10 3 -4 5 12 5 17 0 24 -2 18 -5z m37 -3 c0 -5 -4 -10
-10 -10 -5 0 -10 5 -10 10 0 6 5 10 10 10 6 0 10 -4 10 -10z m185 -10 c8 -13
-5 -13 -25 0 -13 8 -13 10 2 10 9 0 20 -4 23 -10z m-475 -8 c0 -5 -13 -7 -30
-4 -16 2 -30 6 -30 8 0 2 14 4 30 4 17 0 30 -4 30 -8z m188 -10 c-65 -5 -42
-22 32 -23 85 -2 86 -2 97 -13 4 -5 -6 -5 -24 -2 -17 4 -34 3 -37 -2 -10 -17
22 -20 227 -26 15 -1 27 -7 27 -14 0 -7 -5 -10 -10 -7 -6 3 -73 8 -150 10
-119 4 -138 2 -133 -10 3 -8 0 -15 -6 -15 -6 0 -11 -4 -11 -10 0 -5 7 -7 15
-4 8 4 15 1 15 -5 0 -6 7 -8 16 -4 12 4 14 0 9 -20 -6 -24 -4 -26 37 -30 l43
-4 -52 -1 c-46 -2 -51 0 -46 17 6 23 -16 39 -28 20 -5 -8 -3 -17 4 -21 7 -4 8
-8 2 -9 -17 -2 -368 3 -390 5 -84 11 -140 30 -175 62 -39 35 -60 77 -34 67 8
-3 14 -11 14 -19 0 -8 5 -14 10 -14 6 0 10 7 10 15 0 8 6 15 14 15 8 0 13 -8
12 -17 0 -10 5 -17 11 -16 7 2 15 -8 19 -22 3 -14 10 -23 14 -20 5 3 6 14 3
24 -3 10 1 22 7 26 8 5 10 2 6 -11 -3 -11 -2 -25 3 -33 7 -11 13 -10 34 4 24
16 26 15 32 -6 5 -14 2 -25 -6 -31 -10 -7 -6 -8 14 -5 15 2 30 0 33 -4 7 -13
44 -11 44 2 0 5 3 8 8 5 4 -2 8 9 8 25 2 30 -20 45 -61 41 l-20 -2 20 9 c11 5
27 5 36 0 9 -5 19 -5 23 -2 3 3 6 0 6 -7 0 -9 3 -11 10 -4 5 5 35 7 67 4 53
-5 225 3 213 9 -3 2 -31 4 -63 6 -73 3 -88 15 -19 15 29 0 52 4 52 10 0 5 -18
9 -40 7 -22 -2 -45 0 -52 5 -8 5 -1 8 19 8 34 0 57 19 26 21 -10 1 -4 4 12 8
17 4 44 4 60 1 29 -5 29 -5 -7 -8z m375 11 c-7 -2 -19 -2 -25 0 -7 3 -2 5 12
5 14 0 19 -2 13 -5z m75 0 c-10 -2 -26 -2 -35 0 -10 3 -2 5 17 5 19 0 27 -2
18 -5z m-561 -9 c-3 -3 -12 -4 -19 -1 -8 3 -5 6 6 6 11 1 17 -2 13 -5z m268
-3 l40 -9 -50 0 c-27 0 -59 3 -70 8 -17 7 -16 9 10 9 17 0 48 -4 70 -8z m-386
-17 c2 -2 -12 -4 -32 -4 -20 0 -39 5 -42 10 -6 9 64 4 74 -6z m547 9 c-9 -10
-66 -13 -66 -4 0 5 16 9 36 9 19 0 33 -2 30 -5z m-446 -19 c0 -2 -17 -4 -37
-3 -33 1 -35 2 -13 8 23 7 50 4 50 -5z m508 9 c-10 -2 -26 -2 -35 0 -10 3 -2
5 17 5 19 0 27 -2 18 -5z m61 -2 c9 -6 5 -8 -13 -8 -14 0 -26 3 -26 8 0 11 21
11 39 0z m-739 -21 c0 -12 -8 -12 -35 0 -18 8 -17 9 8 9 15 1 27 -3 27 -9z
m724 -6 c21 -2 41 -6 45 -10 3 -3 -41 -3 -99 1 -158 11 -182 13 -189 21 -5 6
101 1 243 -12z m-2287 -16 c-3 -8 -6 -5 -6 6 -1 11 2 17 5 13 3 -3 4 -12 1
-19z m253 18 c0 -11 -19 -15 -25 -6 -3 5 1 10 9 10 9 0 16 -2 16 -4z m1438
-10 c8 -9 -69 -5 -98 4 -17 6 -7 8 33 5 33 -2 62 -6 65 -9z m-1545 -40 c-10
-14 -28 -29 -41 -35 -21 -10 -22 -9 -12 9 11 20 48 50 63 50 4 0 0 -11 -10
-24z m1302 4 c-3 -5 -11 -10 -16 -10 -6 0 -7 5 -4 10 3 6 11 10 16 10 6 0 7
-4 4 -10z m514 -6 c2 -2 -10 -4 -27 -4 -18 0 -32 5 -32 10 0 9 47 4 59 -6z
m111 -5 c0 -5 -12 -6 -26 -3 -18 5 -25 3 -24 -7 4 -27 0 -37 -20 -42 -13 -3
-18 -1 -13 5 4 7 1 8 -8 2 -16 -10 -39 -14 -39 -7 0 14 33 34 50 30 13 -3 20
0 20 9 0 8 -6 14 -12 15 -7 0 -4 4 6 8 23 9 66 2 66 -10z m27 -11 c-3 -8 -6
-5 -6 6 -1 11 2 17 5 13 3 -3 4 -12 1 -19z m-563 6 c-7 -3 -11 -13 -9 -22 1
-9 0 -11 -2 -4 -3 6 -11 12 -19 12 -8 0 -12 5 -9 10 3 6 16 10 28 9 12 0 17
-3 11 -5z m653 0 c-10 -11 -67 -13 -73 -3 -3 5 14 9 37 9 23 0 39 -3 36 -6z
m1548 -12 c0 -18 -20 -15 -23 4 -3 10 1 15 10 12 7 -3 13 -10 13 -16z m-855
-11 c0 -26 -37 -63 -98 -97 -48 -27 -52 -32 -52 -67 0 -66 -31 -97 -60 -62
-19 23 -27 11 -40 -60 -14 -72 -8 -69 -108 -59 -51 6 -60 10 -59 25 1 11 4 19
8 19 6 0 7 7 12 77 1 17 5 29 8 27 6 -4 22 33 20 47 0 4 39 8 88 11 112 5 145
23 186 101 27 51 33 57 63 57 24 0 32 -4 32 -19z m480 -1 c41 -21 70 -54 70
-81 0 -9 -9 -28 -20 -42 -13 -16 -20 -40 -20 -69 0 -51 -25 -104 -61 -130 -38
-28 -72 -15 -109 41 -27 39 -30 51 -23 81 4 19 7 61 5 92 -2 52 1 59 32 92 39
42 68 46 126 16z m-2634 -5 c-11 -8 -26 -15 -33 -15 -7 0 -13 -4 -13 -10 0 -5
-15 -10 -32 -10 l-33 0 25 20 c25 19 47 26 85 28 20 1 20 1 1 -13z m1330 -7
c-10 -6 -20 -7 -24 -3 -9 8 20 25 31 18 5 -3 2 -10 -7 -15z m84 0 c0 -4 -4 -8
-9 -8 -6 0 -12 4 -15 8 -3 5 1 9 9 9 8 0 15 -4 15 -9z m70 -4 c0 -2 -7 -4 -15
-4 -8 0 -15 4 -15 10 0 5 7 7 15 4 8 -4 15 -8 15 -10z m227 10 c-3 -3 -12 -4
-19 -1 -8 3 -5 6 6 6 11 1 17 -2 13 -5z m103 -4 c12 -8 11 -10 -7 -10 -12 0
-25 5 -28 10 -8 13 15 13 35 0z m57 -6 c-3 -3 -12 -4 -19 -1 -8 3 -5 6 6 6 11
1 17 -2 13 -5z m470 -16 c13 -12 23 -32 23 -45 0 -19 -5 -23 -33 -23 -59 0
-97 46 -65 78 18 18 49 14 75 -10z m-2235 -50 c55 4 65 -7 37 -42 -16 -21 -29
-26 -62 -26 -23 0 -49 4 -56 9 -28 18 -51 -6 -51 -54 0 -32 -7 -51 -25 -73
-39 -46 -36 -51 41 -67 39 -8 50 -39 24 -65 -15 -15 -25 -16 -71 -8 -87 16
-106 33 -74 68 14 15 13 20 -6 43 -11 15 -30 27 -43 27 -23 0 -66 26 -66 40 0
5 11 22 25 38 21 25 35 31 88 37 34 4 67 11 73 16 7 6 16 9 20 8 21 -3 47 2
41 8 -11 10 34 53 47 45 6 -4 32 -5 58 -4z m2888 -80 c0 -14 -23 -9 -42 9 -28
25 -21 34 12 15 16 -9 30 -20 30 -24z m-680 -59 c6 -10 10 -27 10 -39 0 -33
-37 -98 -61 -105 -69 -22 -123 62 -86 135 10 19 22 26 57 30 54 7 68 3 80 -21z
m-2597 -13 c7 -19 -17 -39 -40 -34 -10 2 -19 13 -21 26 -3 18 1 22 26 22 17 0
32 -6 35 -14z m1147 -79 c0 5 10 9 23 7 12 -1 26 -3 31 -3 17 -2 -1 -12 -30
-17 -16 -3 -37 -7 -46 -9 -65 -17 -65 -17 -33 9 22 19 32 22 42 14 7 -6 13 -6
13 -1z m-1273 -29 c-3 -8 -6 -5 -6 6 -1 11 2 17 5 13 3 -3 4 -12 1 -19z m2480
-20 c6 -7 13 -25 17 -41 4 -15 15 -36 26 -47 11 -11 20 -23 20 -27 1 -34 13
-43 48 -37 25 4 34 3 27 -4 -5 -5 -28 -13 -50 -16 -23 -4 -35 -3 -27 2 10 7 8
14 -7 34 -11 14 -18 27 -16 30 3 3 -4 13 -15 23 -11 10 -20 25 -20 33 0 9 -6
12 -16 8 -9 -3 -12 -2 -9 4 4 6 -11 18 -31 26 l-38 16 24 13 c25 14 47 8 67
-17z m-2700 -74 c10 -27 -20 -45 -82 -47 -69 -2 -81 13 -33 43 40 24 106 27
115 4z m1229 -18 c3 -9 13 -12 22 -9 10 3 8 -1 -6 -11 -12 -10 -19 -22 -16
-28 4 -7 2 -8 -5 -4 -9 6 -9 11 1 24 11 14 10 15 -7 8 -31 -13 -47 -12 -52 2
-3 6 6 16 19 21 32 13 38 13 44 -3z m2514 -54 c8 -17 20 -32 26 -32 17 0 47
-38 39 -49 -14 -23 -68 -43 -101 -37 -114 20 -107 20 -95 -2 20 -38 13 -66
-23 -90 -24 -16 -41 -21 -60 -16 -20 5 -26 2 -26 -10 0 -13 11 -16 50 -16 37
0 50 -4 50 -14 0 -18 -61 -56 -90 -56 -47 0 -148 119 -150 177 0 16 -8 23 -30
28 -41 9 -67 48 -52 79 21 48 81 38 107 -18 18 -37 24 -41 96 -50 56 -8 103
11 143 58 86 100 90 102 116 48z m-480 -1 c0 -12 -37 -24 -50 -16 -20 12 -10
25 20 25 17 0 30 -4 30 -9z m-2944 -23 c5 -13 7 -27 5 -33 -17 -59 -2 -68 74
-44 80 25 95 24 95 -4 0 -39 -33 -60 -93 -60 -28 0 -64 3 -78 7 -20 6 -32 2
-54 -18 l-27 -26 -19 24 c-44 56 -31 111 37 151 50 29 51 29 60 3z m2728 7
c11 -8 18 -17 15 -19 -2 -3 -15 4 -29 14 -14 11 -20 20 -15 19 6 0 19 -6 29
-14z m-304 -25 c0 -5 -7 -10 -17 -10 -22 0 -93 -32 -93 -42 0 -4 -7 -5 -15 -2
-21 9 -19 24 4 24 11 0 23 5 26 10 4 6 11 8 16 5 5 -4 19 1 31 9 26 18 48 21
48 6z m-1382 -18 c13 -1 21 -6 17 -11 -3 -6 -18 -6 -37 0 -18 5 -39 7 -48 4
-8 -2 -21 -1 -28 4 -12 7 26 8 96 3z m1687 -2 c17 -7 15 -9 -12 -9 -17 -1 -34
-5 -38 -11 -3 -5 -12 -7 -20 -3 -8 3 -15 0 -15 -7 0 -9 -7 -7 -21 6 -13 12
-23 15 -27 7 -4 -6 -15 -7 -27 -2 -22 8 -24 8 65 15 30 3 57 7 59 10 6 5 12 4
36 -6z m60 -9 c9 -16 -9 -20 -23 -5 -10 12 -10 14 2 14 8 0 17 -4 21 -9z
m-1690 -11 c-3 -5 -14 -10 -23 -9 -14 0 -13 2 3 9 27 11 27 11 20 0z m117 -2
c-4 -4 -30 -11 -56 -14 -37 -5 -47 -4 -42 5 4 6 12 9 17 6 5 -4 17 -2 26 4 21
11 67 11 55 -1z m1328 3 c0 -5 -15 -12 -32 -16 -18 -4 -41 -9 -50 -11 -11 -4
-18 0 -18 9 0 9 7 13 18 11 14 -3 40 2 80 15 1 1 2 -3 2 -8z m-1513 -7 c-3 -3
-12 -4 -19 -1 -8 3 -5 6 6 6 11 1 17 -2 13 -5z m1238 -14 c-3 -5 -14 -10 -24
-10 -9 0 -22 -5 -29 -12 -6 -6 -14 -9 -17 -6 -3 3 9 13 27 21 38 19 52 21 43
7z m-1248 -16 c-3 -3 -12 -4 -19 -1 -8 3 -5 6 6 6 11 1 17 -2 13 -5z m103 -3
c0 -5 -7 -12 -16 -15 -24 -9 -28 -7 -14 9 14 17 30 20 30 6z m1280 -6 c-14 -8
-32 -14 -40 -14 -8 0 -1 7 15 14 39 18 57 18 25 0z m-1105 -15 c18 -8 17 -9
-7 -9 -16 -1 -28 4 -28 9 0 12 8 12 35 0z m875 3 c-57 -18 -70 -21 -70 -13 0
9 29 17 65 18 13 0 15 -1 5 -5z m170 -13 c0 -5 -7 -10 -15 -10 -8 0 -15 5 -15
10 0 6 7 10 15 10 8 0 15 -4 15 -10z m-41 -14 c-2 -2 -17 -6 -34 -9 l-30 -6
30 13 c26 12 47 13 34 2z m-74 -26 c-3 -5 -14 -10 -23 -9 -14 0 -13 2 3 9 27
11 27 11 20 0z m-60 -28 c-3 -3 -11 0 -18 7 -9 10 -8 11 6 5 10 -3 15 -9 12
-12z m-31 -1 c3 -5 -10 -11 -30 -13 -32 -4 -34 -3 -18 9 21 15 40 17 48 4z
m486 -11 c0 -5 -2 -10 -4 -10 -3 0 -8 5 -11 10 -3 6 -1 10 4 10 6 0 11 -4 11
-10z m-560 -10 c0 -5 -4 -10 -10 -10 -5 0 -10 5 -10 10 0 6 5 10 10 10 6 0 10
-4 10 -10z m505 -15 c0 -23 -7 -30 -29 -26 -5 1 -6 -5 -3 -13 3 -8 -2 -20 -10
-28 -15 -11 -16 -11 -10 6 6 15 3 18 -18 14 -28 -6 -32 3 -10 22 11 9 15 9 15
1 0 -7 5 -9 11 -6 6 4 8 13 5 20 -3 8 6 18 22 24 15 5 27 10 27 10 0 1 0 -10
0 -24z m-541 0 c3 -9 0 -15 -9 -15 -9 0 -12 6 -9 15 4 8 7 15 9 15 2 0 5 -7 9
-15z m-1859 -15 c3 -5 1 -10 -4 -10 -6 0 -11 5 -11 10 0 6 2 10 4 10 3 0 8 -4
11 -10z m695 -40 c0 -5 -2 -10 -4 -10 -3 0 -8 5 -11 10 -3 6 -1 10 4 10 6 0
11 -4 11 -10z m1596 -16 c-5 -13 -9 -14 -21 -4 -10 8 -15 9 -15 2 0 -6 8 -16
18 -21 15 -9 15 -10 1 -11 -17 0 -46 27 -38 35 8 7 54 23 58 19 2 -2 1 -11 -3
-20z m38 -9 c-4 -8 -11 -12 -16 -9 -6 4 -5 10 3 15 19 12 19 11 13 -6z m-924
-5 c0 -5 -5 -10 -11 -10 -5 0 -7 5 -4 10 3 6 8 10 11 10 2 0 4 -4 4 -10z m830
-10 c0 -5 -4 -10 -10 -10 -5 0 -10 5 -10 10 0 6 5 10 10 10 6 0 10 -4 10 -10z
m-33 -6 c-3 -3 -12 -4 -19 -1 -8 3 -5 6 6 6 11 1 17 -2 13 -5z m53 -24 c12 -7
12 -12 2 -22 -9 -9 -12 -8 -12 6 0 12 -5 16 -16 12 -8 -3 -12 -2 -9 4 8 12 16
12 35 0z m-135 -30 c-3 -5 -11 -10 -16 -10 -6 0 -7 5 -4 10 3 6 11 10 16 10 6
0 7 -4 4 -10z"/>
<path d="M1700 2315 c-8 -10 -9 -15 -2 -15 6 0 9 -8 6 -17 -3 -10 2 -7 10 7 8
14 15 28 16 33 0 12 -17 8 -30 -8z"/>
<path d="M2020 1870 c0 -11 2 -20 4 -20 2 0 6 9 9 20 3 11 1 20 -4 20 -5 0 -9
-9 -9 -20z"/>
<path d="M2063 1874 c-8 -22 13 -42 30 -25 10 10 9 11 -5 6 -13 -5 -18 -2 -18
10 0 11 5 15 16 11 8 -3 12 -2 9 4 -9 15 -25 12 -32 -6z"/>
<path d="M2132 1860 c0 -14 2 -19 5 -12 2 6 2 18 0 25 -3 6 -5 1 -5 -13z"/>
<path d="M2186 1865 c-8 -22 -8 -22 9 -22 17 0 18 6 6 25 -7 11 -10 10 -15 -3z"/>
<path d="M1983 1803 c9 -2 25 -2 35 0 9 3 1 5 -18 5 -19 0 -27 -2 -17 -5z"/>
<path d="M2083 1803 c26 -2 68 -2 95 0 26 2 4 3 -48 3 -52 0 -74 -1 -47 -3z"/>
<path d="M2022 1760 c0 -14 2 -19 5 -12 2 6 2 18 0 25 -3 6 -5 1 -5 -13z"/>
<path d="M2063 1764 c-8 -21 13 -42 28 -27 13 13 5 43 -11 43 -6 0 -13 -7 -17
-16z m27 -9 c0 -8 -4 -15 -10 -15 -5 0 -10 7 -10 15 0 8 5 15 10 15 6 0 10 -7
10 -15z"/>
<path d="M2130 1749 c0 -18 2 -19 15 -9 8 7 15 16 15 21 0 5 -7 9 -15 9 -9 0
-15 -9 -15 -21z"/>
<path d="M2186 1755 c-8 -22 -8 -22 9 -22 17 0 18 6 6 25 -7 11 -10 10 -15 -3z"/>
<path d="M2034 1678 c-4 -7 -3 -8 4 -4 6 4 20 2 30 -3 13 -7 22 -7 30 1 8 8
15 8 27 -2 8 -7 18 -10 21 -7 11 11 -37 29 -49 18 -8 -6 -18 -6 -27 -1 -20 13
-27 12 -36 -2z"/>
<path d="M1920 1048 c0 -4 14 -8 30 -8 17 0 30 4 30 8 0 5 -13 9 -30 9 -16 0
-30 -4 -30 -9z"/>
<path d="M1660 992 c0 -5 23 -9 52 -11 28 -1 56 -5 61 -8 5 -3 8 0 5 8 -5 15
-118 25 -118 11z"/>
<path d="M1790 989 c0 -5 16 -9 35 -9 28 0 33 -3 29 -17 -5 -17 -5 -17 6 0 9
13 15 15 31 7 14 -8 19 -7 19 2 0 9 3 9 10 -2 8 -13 10 -13 10 2 0 9 -8 19
-17 22 -27 9 -123 4 -123 -5z"/>
<path d="M1740 962 c-8 -4 -16 -13 -17 -19 -4 -18 42 -16 57 2 9 10 9 15 1 15
-6 0 -11 -4 -11 -10 0 -5 -5 -10 -11 -10 -6 0 -9 7 -5 15 3 8 4 15 3 14 -1 0
-9 -3 -17 -7z"/>
<path d="M1663 945 c0 -9 9 -14 24 -13 22 2 23 4 7 15 -23 17 -31 16 -31 -2z"/>
<path d="M1880 940 c0 -5 5 -10 10 -10 6 0 10 5 10 10 0 6 -4 10 -10 10 -5 0
-10 -4 -10 -10z"/>
<path d="M2089 2063 l-24 -28 26 23 c23 20 27 21 39 7 7 -8 17 -15 23 -15 5 0
0 9 -13 20 -13 11 -24 20 -25 20 -1 0 -12 -12 -26 -27z"/>
<path d="M2361 1813 c11 -19 11 -25 -5 -42 -11 -12 -15 -21 -9 -21 5 0 18 9
28 20 18 20 18 21 -4 43 l-23 22 13 -22z"/>
<path d="M1915 1720 c-3 -5 -1 -10 4 -10 6 0 11 5 11 10 0 6 -2 10 -4 10 -3 0
-8 -4 -11 -10z"/>
<path d="M1937 1703 c-3 -3 1 -12 9 -20 8 -9 18 -13 21 -10 3 3 -1 13 -10 21
-8 8 -17 12 -20 9z"/>
<path d="M2265 1679 c-4 -6 -4 -13 -1 -16 3 -4 6 -1 6 6 0 7 5 9 12 5 7 -4 8
-3 4 4 -9 15 -13 15 -21 1z"/>
<path d="M2216 1623 c-6 -14 -5 -15 5 -6 7 7 10 15 7 18 -3 3 -9 -2 -12 -12z"/>
<path d="M2182 1594 c-7 -8 -8 -14 -3 -14 10 0 25 19 20 25 -2 1 -10 -3 -17
-11z"/>
<path d="M2070 1563 c0 -12 33 -43 47 -43 13 0 48 38 41 45 -3 3 -13 -4 -23
-15 l-18 -20 -24 22 c-13 12 -23 17 -23 11z"/>
<path d="M1310 1400 c-17 -6 -9 -7 25 -3 28 3 52 7 54 9 8 7 -54 2 -79 -6z"/>
<path d="M119 1313 c-13 -15 -12 -15 11 -3 34 17 36 20 18 20 -9 0 -22 -7 -29
-17z"/>
<path d="M81 1259 c-6 -18 -11 -39 -11 -48 1 -9 8 4 16 27 9 24 13 46 11 48
-3 3 -10 -9 -16 -27z"/>
<path d="M10 1161 c0 -6 4 -13 10 -16 6 -3 7 1 4 9 -7 18 -14 21 -14 7z"/>
<path d="M1077 463 c-4 -3 -7 -17 -7 -30 0 -13 -4 -22 -8 -19 -5 3 -9 -1 -9
-9 0 -9 9 -15 21 -14 12 0 15 3 8 6 -6 2 -9 9 -6 14 6 10 13 59 9 59 -1 0 -5
-3 -8 -7z"/>
<path d="M1101 443 c-1 -17 3 -21 17 -16 15 5 15 4 -2 -9 -13 -10 -16 -21 -12
-36 4 -12 12 -19 18 -16 6 4 14 0 19 -7 7 -11 9 -11 9 3 0 9 4 19 9 22 5 3 8
-2 7 -11 0 -9 4 -18 11 -20 7 -3 10 4 7 19 l-5 23 11 -23 c13 -30 3 -47 -16
-31 -10 8 -18 9 -25 2 -7 -7 -2 -12 15 -17 25 -6 37 -26 16 -26 -18 0 -25 5
-22 14 2 5 -4 4 -12 -4 -14 -11 -16 -9 -16 10 0 17 -5 21 -19 17 -15 -3 -17 0
-13 17 4 17 2 19 -9 9 -18 -17 -34 -17 -20 0 9 11 5 14 -18 15 -23 0 -28 -3
-24 -15 5 -13 3 -13 -15 -4 -15 8 -23 8 -28 0 -4 -8 -9 -7 -15 2 -7 12 -9 12
-9 0 0 -11 -3 -11 -15 -1 -13 11 -18 10 -30 -6 -12 -17 -11 -19 13 -22 57 -5
140 -34 225 -77 16 -8 38 -15 48 -15 11 0 28 -4 37 -9 9 -5 36 -11 59 -14 23
-4 70 -13 105 -21 57 -13 241 -40 343 -50 26 -2 39 -8 37 -17 -3 -10 0 -10 12
0 8 7 37 14 63 15 59 4 93 14 93 28 0 6 -2 9 -6 6 -3 -3 -24 0 -48 7 -29 9
-48 10 -60 3 -13 -7 -20 -7 -25 1 -6 9 -67 21 -126 25 -11 1 -25 5 -32 9 -6 4
-33 10 -60 13 -26 4 -55 12 -63 19 -28 22 -50 26 -50 7 0 -13 -3 -12 -16 6
-10 14 -25 22 -45 22 -31 0 -59 19 -59 41 0 8 -3 9 -13 0 -14 -11 -27 -5 -27
13 0 6 5 4 10 -4 6 -9 10 -10 10 -3 0 22 -19 24 -30 3 -8 -16 -17 -19 -33 -14
-26 8 -38 24 -30 38 3 5 1 6 -5 3 -5 -4 -21 6 -35 22 -14 17 -28 27 -31 23 -4
-3 -9 4 -13 17 -4 17 -11 22 -29 18 -13 -2 -25 1 -28 7 -2 6 -5 1 -5 -11z
m129 -108 c-7 -8 -9 -15 -4 -15 5 0 2 -5 -6 -11 -12 -8 -10 -9 7 -4 12 3 24 1
28 -5 3 -5 -1 -10 -10 -10 -13 0 -16 -6 -11 -27 3 -16 3 -22 0 -15 -3 6 -11 9
-16 5 -7 -4 -9 2 -5 16 4 18 3 20 -9 10 -18 -15 -18 -7 3 36 9 19 21 35 26 35
5 0 4 -7 -3 -15z"/>
<path d="M1220 390 c0 -5 5 -10 11 -10 5 0 7 5 4 10 -3 6 -8 10 -11 10 -2 0
-4 -4 -4 -10z"/>
<path d="M1276 348 c3 -4 9 -8 15 -8 5 0 9 4 9 8 0 5 -7 9 -15 9 -8 0 -12 -4
-9 -9z"/>
<path d="M25 280 c4 -6 11 -8 16 -5 14 9 11 15 -7 15 -8 0 -12 -5 -9 -10z"/>
<path d="M225 241 c-3 -6 -15 -11 -26 -11 -11 0 -22 -7 -26 -16 -3 -8 -11 -13
-18 -10 -16 6 -28 -21 -14 -30 5 -3 21 1 34 10 13 8 25 11 27 6 3 -11 98 29
98 42 0 4 -9 8 -19 8 -11 0 -26 3 -34 6 -8 3 -18 1 -22 -5z"/>
<path d="M676 225 c-3 -8 -1 -15 4 -15 6 0 10 7 10 15 0 8 -2 15 -4 15 -2 0
-6 -7 -10 -15z"/>
<path d="M1030 229 c0 -5 5 -7 10 -4 6 3 10 8 10 11 0 2 -4 4 -10 4 -5 0 -10
-5 -10 -11z"/>
<path d="M335 206 c-16 -6 -33 -15 -36 -20 -4 -5 -14 -6 -23 -3 -8 3 -18 2
-22 -4 -3 -6 -16 -15 -27 -20 -12 -5 -37 -18 -55 -29 -18 -11 -34 -20 -37 -20
-3 0 -10 0 -16 0 -5 0 -8 -4 -5 -9 3 -5 -6 -12 -19 -15 -14 -4 -23 -11 -20
-16 3 -5 -4 -11 -15 -15 -11 -3 -20 -10 -20 -15 0 -5 -9 -12 -20 -15 -11 -3
-20 -11 -20 -16 0 -6 37 -9 95 -8 74 2 94 6 91 16 -3 7 1 13 9 13 7 0 15 7 17
16 2 13 8 11 31 -10 39 -36 70 -20 43 23 -6 10 -5 12 2 7 7 -4 17 -4 23 0 8 4
7 9 -2 15 -11 7 -11 9 2 9 9 0 21 10 28 23 12 22 92 77 112 77 6 0 4 7 -5 15
-17 17 -63 17 -111 1z"/>
<path d="M2390 190 c0 -5 7 -7 15 -4 8 4 15 8 15 10 0 2 -7 4 -15 4 -8 0 -15
-4 -15 -10z"/>
<path d="M102 175 c12 -13 -76 -70 -92 -60 -6 4 -10 -3 -10 -14 0 -30 34 -27
68 7 16 15 34 27 41 26 7 -2 7 0 1 3 -8 3 -8 9 0 18 8 10 8 15 -2 21 -7 4 -10
4 -6 -1z"/>
<path d="M565 120 c-3 -5 -1 -10 4 -10 6 0 11 5 11 10 0 6 -2 10 -4 10 -3 0
-8 -4 -11 -10z"/>
<path d="M415 100 c-3 -5 -1 -10 4 -10 6 0 11 5 11 10 0 6 -2 10 -4 10 -3 0
-8 -4 -11 -10z"/>
<path d="M402 63 c-16 -17 -23 -63 -10 -63 5 0 15 14 22 31 8 19 16 27 20 20
4 -6 2 -20 -4 -31 -13 -25 1 -27 17 -2 12 20 8 29 -17 48 -12 9 -18 9 -28 -3z"/>
<path d="M896 15 c-3 -8 -1 -15 3 -15 5 0 11 7 15 15 3 8 1 15 -3 15 -5 0 -11
-7 -15 -15z"/>
<path d="M1285 10 c-3 -5 -1 -10 4 -10 6 0 11 5 11 10 0 6 -2 10 -4 10 -3 0
-8 -4 -11 -10z"/>
</g>
</svg>
