<?xml version="1.0" standalone="no"?>
<!DOCTYPE svg PUBLIC "-//W3C//DTD SVG 20010904//EN"
 "http://www.w3.org/TR/2001/REC-SVG-20010904/DTD/svg10.dtd">
<svg version="1.0" xmlns="http://www.w3.org/2000/svg"
 width="480.000000pt" height="320.000000pt" viewBox="0 0 480.000000 320.000000"
 preserveAspectRatio="xMidYMid meet">

<g transform="translate(0.000000,320.000000) scale(0.100000,-0.100000)"
fill="#000000" stroke="none">
<path d="M0 2681 c0 -406 3 -521 13 -525 9 -5 9 -7 0 -12 -10 -4 -13 -229 -13
-1075 l0 -1069 986 0 c881 0 986 2 980 15 -9 24 -9 276 1 285 4 4 40 12 78 18
52 8 75 17 90 34 31 37 52 50 108 68 54 18 58 26 46 85 -6 28 91 73 196 91
125 22 175 47 175 88 0 14 18 33 55 58 l54 37 10 -37 c27 -99 161 -715 161
-737 0 -3 97 -5 215 -5 165 0 215 3 215 13 0 12 -72 295 -131 512 -27 103 -32
139 -35 255 -2 139 -5 165 -23 198 -6 11 -7 22 -4 26 3 3 1 6 -5 6 -7 0 -12 7
-12 16 0 8 -4 13 -9 10 -5 -4 -12 0 -15 6 -3 7 -3 0 -1 -17 18 -147 18 -141 2
-125 -9 8 -38 89 -66 180 -108 357 -147 446 -256 578 -42 50 -78 92 -81 92 -2
0 8 -18 22 -40 15 -22 31 -40 36 -40 5 0 7 -4 4 -9 -3 -5 6 -21 19 -35 29 -32
30 -39 9 -60 -18 -18 -34 -21 -34 -6 0 6 4 10 10 10 14 0 -10 48 -28 55 -8 3
-20 -2 -27 -12 -12 -16 -15 -15 -48 12 -32 27 -51 55 -28 41 5 -4 16 -4 24 -1
11 5 12 15 4 55 -9 48 -12 51 -94 104 -46 30 -89 57 -96 59 -7 2 -9 7 -6 11 4
4 27 -3 51 -15 l45 -22 64 50 c35 27 73 55 84 62 17 10 13 11 -25 6 -63 -9
-190 -46 -190 -56 0 -19 -21 -7 -58 33 -45 48 -75 134 -51 149 11 6 10 14 -4
44 -9 20 -17 42 -17 50 0 18 17 20 23 3 3 -8 9 -1 16 15 6 15 15 27 21 27 6 0
33 -20 59 -45 39 -37 57 -46 97 -51 27 -3 62 -15 78 -26 l29 -21 -7 34 c-3 19
-16 42 -29 51 l-22 18 25 -1 c37 0 131 -43 162 -73 15 -15 25 -21 22 -13 -8
22 12 29 31 11 17 -17 13 -42 -11 -82 -17 -26 -34 -29 -34 -6 0 13 -3 14 -13
5 -8 -6 -17 -8 -20 -5 -3 3 -15 0 -26 -8 -20 -15 -20 -15 7 -40 28 -27 86 -64
181 -116 79 -43 160 -111 186 -157 25 -44 101 -271 135 -405 34 -135 201 -967
254 -1272 5 -28 12 -38 25 -38 17 0 19 14 20 217 1 119 4 219 6 223 7 11 8
320 1 327 -3 3 -6 -9 -6 -28 0 -19 -5 -51 -11 -73 -23 -82 -35 -13 -39 217 0
18 -11 40 -28 57 -24 24 -30 42 -41 117 -7 48 -22 142 -33 208 -11 66 -24 161
-28 210 -14 152 -45 243 -94 285 -25 20 -19 35 24 59 22 12 40 24 40 26 0 2
-33 3 -73 2 -70 -2 -72 -3 -53 -19 33 -26 13 -30 -25 -4 -19 13 -66 40 -106
60 -39 20 -74 44 -77 52 -3 7 -12 14 -20 14 -7 0 -17 7 -20 16 -10 26 -7 29 9
8 13 -17 14 -14 9 35 -2 30 -9 61 -15 68 -14 16 -5 43 14 43 8 0 35 -12 61
-26 l46 -26 0 26 c0 14 5 26 11 26 23 0 99 -55 99 -71 0 -9 21 -34 47 -55 26
-21 76 -65 112 -96 36 -32 94 -81 128 -110 33 -29 70 -71 82 -93 24 -49 47
-170 61 -334 6 -68 24 -214 40 -325 73 -498 79 -570 80 -843 l0 -193 495 0
495 0 0 1600 0 1600 -1082 0 c-842 0 -1079 -3 -1070 -12 14 -14 16 -38 3 -38
-5 0 -12 11 -15 25 l-6 25 -339 0 c-315 0 -340 -1 -344 -17 -4 -16 -5 -16 -6
-1 -1 15 -21 17 -199 17 l-198 1 -1 -23 c-5 -69 -28 -177 -38 -177 -7 0 -40 9
-75 21 -35 11 -71 18 -82 16 -11 -3 -15 -1 -12 5 5 7 -2 9 -20 4 -20 -5 -26
-4 -20 5 5 9 1 10 -14 7 -13 -4 -20 -2 -19 5 1 6 -8 13 -21 15 -21 3 -22 1
-13 -17 6 -11 11 -28 10 -38 0 -12 -5 -9 -14 12 -8 17 -12 38 -9 47 7 25 -39
52 -88 50 -42 -2 -100 25 -116 54 -7 12 -29 14 -107 12 l-99 -3 117 -34 c65
-18 116 -36 113 -38 -2 -3 -67 14 -144 36 -77 23 -154 41 -172 41 -32 0 -37
-8 -8 -14 7 -2 20 -5 28 -8 8 -3 40 -11 70 -18 30 -7 89 -23 130 -35 41 -13
105 -31 143 -41 65 -18 67 -20 67 -51 0 -17 -5 -35 -12 -39 -6 -4 -8 -3 -4 4
8 13 -48 27 -65 16 -7 -4 -9 -3 -6 3 9 14 -32 24 -62 16 -16 -4 -22 -2 -18 4
4 6 -2 13 -13 16 -11 3 -20 0 -20 -6 0 -8 -3 -8 -8 1 -5 8 -16 10 -27 6 -13
-5 -16 -4 -11 4 7 12 -11 17 -42 13 -8 -1 -20 3 -28 10 -11 9 -14 9 -14 -2 0
-9 -3 -9 -12 3 -7 8 -80 34 -162 56 -82 23 -152 45 -155 50 -3 6 -114 10 -248
11 l-243 2 0 -520z m2698 454 l12 -25 20 20 c29 29 43 21 52 -30 9 -53 5 -59
-23 -34 -21 19 -22 19 -15 -3 6 -18 3 -23 -12 -23 -14 0 -25 15 -41 56 -24 63
-24 64 -13 64 5 0 14 -11 20 -25z m-2103 5 c13 -5 14 -9 5 -9 -8 0 -24 4 -35
9 -13 5 -14 9 -5 9 8 0 24 -4 35 -9z m52 -16 c-3 -3 -12 -4 -19 -1 -8 3 -5 6
6 6 11 1 17 -2 13 -5z m464 -16 c22 -6 39 -15 39 -19 0 -7 -88 18 -99 27 -9 8
23 4 60 -8z m1496 -90 c15 -27 17 -74 4 -83 -5 -3 -36 7 -68 23 -56 27 -58 29
-61 71 -5 73 1 77 61 43 28 -17 58 -41 64 -54z m-1397 -10 c0 -10 -4 -18 -10
-18 -5 0 -10 15 -10 33 0 24 3 28 10 17 5 -8 10 -23 10 -32z m95 11 c114 -30
297 -92 310 -105 16 -16 20 -34 8 -34 -5 0 -90 21 -190 47 -181 48 -183 48
-183 76 0 31 0 31 55 16z m95 1 c18 -12 2 -12 -25 0 -13 6 -15 9 -5 9 8 0 22
-4 30 -9z m1454 -4 c23 -8 33 -16 25 -19 -12 -5 21 -11 42 -9 4 1 14 -7 23
-17 11 -12 18 -46 22 -104 4 -48 4 -87 1 -87 -22 0 -163 70 -171 86 -6 10 -19
30 -28 43 -26 34 -24 61 3 54 19 -5 21 -3 17 25 -4 27 2 39 22 41 3 0 23 -5
44 -13z m-151 -68 c2 -13 8 -31 12 -40 9 -22 -12 -24 -38 -4 -15 12 -16 18 -6
40 15 32 25 33 32 4z m-1003 -47 c-1 -10 -6 -7 -15 9 -19 33 -18 50 0 26 8
-11 15 -27 15 -35z m1297 -18 c-2 -16 -4 -5 -4 22 0 28 2 40 4 28 2 -13 2 -35
0 -50z m-1330 -5 c-3 -7 -5 -2 -5 12 0 14 2 19 5 13 2 -7 2 -19 0 -25z m105
-13 c16 4 29 1 38 -10 8 -9 21 -13 34 -10 15 5 17 4 7 -3 -11 -8 -10 -11 5
-16 10 -3 1 -3 -21 0 -64 9 -115 28 -115 43 0 10 3 11 14 2 8 -7 25 -9 38 -6z
m832 -61 c9 -3 14 -10 11 -15 -7 -10 -35 0 -35 12 0 11 3 11 24 3z m-344 -60
c0 -8 -4 -12 -10 -9 -5 3 -10 13 -10 21 0 8 5 12 10 9 6 -3 10 -13 10 -21z
m606 -45 l56 -21 -5 -50 c-3 -28 -10 -55 -15 -60 -11 -11 -73 10 -89 30 -12
15 -19 122 -8 122 2 0 30 -9 61 -21z m-376 -20 c0 -6 -4 -7 -10 -4 -5 3 -10
11 -10 16 0 6 5 7 10 4 6 -3 10 -11 10 -16z m490 -80 c0 -52 -5 -57 -35 -35
-13 9 -16 18 -10 32 4 10 7 23 6 28 -3 13 20 36 30 30 5 -3 9 -27 9 -55z
m-2302 -59 c37 -65 18 -46 -27 28 -23 37 -31 55 -19 40 13 -15 33 -46 46 -68z
m699 -51 c24 -34 39 -47 47 -40 7 6 51 -24 135 -94 l125 -104 39 21 c53 27 93
19 162 -30 43 -31 51 -41 37 -46 -9 -3 -24 -10 -32 -15 -39 -26 -163 -82 -173
-78 -6 2 -1 13 11 25 14 14 17 22 9 22 -7 0 -22 7 -33 15 -16 13 -17 16 -4 25
19 13 53 13 45 0 -11 -18 8 -11 32 12 18 17 26 19 32 10 11 -18 41 -4 41 19 0
23 -37 49 -69 49 -14 0 -55 -18 -92 -41 -83 -50 -126 -53 -205 -14 l-56 28 4
54 c3 36 1 53 -6 50 -6 -3 -17 2 -24 9 -11 12 -10 14 5 14 14 0 15 2 4 9 -7 5
-10 14 -6 20 7 12 -25 61 -79 120 -26 28 -27 32 -8 22 13 -7 39 -35 59 -62z
m-657 -19 c6 -11 8 -20 6 -20 -3 0 -10 9 -16 20 -6 11 -8 20 -6 20 3 0 10 -9
16 -20z m2024 12 c3 -5 -1 -9 -9 -9 -8 0 -12 4 -9 9 3 4 7 8 9 8 2 0 6 -4 9
-8z m138 -35 c4 -6 2 -19 -3 -29 -7 -14 -6 -16 6 -12 8 3 13 10 10 14 -3 4 1
13 9 19 15 13 66 -1 66 -18 0 -14 -61 -42 -74 -33 -12 7 -18 9 -43 11 -18 1
-46 47 -38 61 6 10 58 -1 67 -13z m-2098 -72 l38 -50 -37 40 c-20 22 -41 49
-47 60 -14 26 0 12 46 -50z m115 -2 c27 -18 19 -26 -36 -38 -28 -5 -32 -4 -27
9 3 9 1 22 -5 30 -25 30 19 30 68 -1z m181 -17 c14 -1 45 -12 70 -24 25 -12
34 -19 21 -16 -20 5 -23 4 -16 -12 17 -43 23 -73 19 -101 -3 -24 1 -32 17 -36
12 -3 18 -10 15 -16 -4 -5 2 -16 12 -23 17 -11 9 -13 -59 -15 -60 -1 -77 1
-73 11 3 8 -5 16 -18 20 -19 5 -21 8 -8 17 11 8 8 9 -16 4 -24 -4 -36 0 -58
20 -15 14 -31 23 -36 20 -10 -6 -27 22 -26 43 1 7 7 17 15 21 11 7 7 14 -18
29 l-32 19 46 13 c25 7 45 17 45 22 0 5 9 4 20 -2 12 -6 20 -7 20 -1 0 5 -6
12 -12 15 -7 3 1 3 17 0 17 -4 41 -7 55 -8z m-117 -3 c-7 -2 -19 -2 -25 0 -7
3 -2 5 12 5 14 0 19 -2 13 -5z m1765 -21 c20 -6 15 -11 -37 -33 -58 -26 -60
-26 -76 -9 -10 11 -14 24 -9 31 4 8 3 10 -4 5 -7 -4 -12 -2 -12 3 0 12 99 13
138 3z m202 -23 c0 -17 -4 -28 -10 -24 -5 3 -10 17 -10 31 0 13 5 24 10 24 6
0 10 -14 10 -31z m60 0 c0 -24 -4 -30 -17 -27 -11 2 -19 14 -21 31 -3 22 1 27
17 27 17 0 21 -6 21 -31z m644 0 c-3 -5 -10 -7 -15 -3 -5 3 -7 10 -3 15 3 5
10 7 15 3 5 -3 7 -10 3 -15z m-756 -16 c5 -18 -10 -16 -34 2 -18 15 -18 15 5
13 14 -2 26 -9 29 -15z m-2619 -20 c0 -5 -4 -17 -9 -28 -8 -18 -9 -17 -9 8 -1
15 4 27 9 27 6 0 10 -3 9 -7z m1682 -10 c13 -16 12 -17 -3 -4 -10 7 -18 15
-18 17 0 8 8 3 21 -13z m-1573 -8 c24 -9 60 -17 80 -19 39 -4 149 -42 156 -54
2 -4 -10 -18 -29 -30 -32 -22 -34 -22 -68 -6 -22 10 -37 26 -39 38 -4 30 -22
22 -26 -11 -6 -49 -22 -103 -32 -103 -8 0 -15 76 -13 137 1 7 -4 10 -11 5 -20
-13 -146 -29 -146 -18 0 14 61 76 74 76 6 0 31 -7 54 -15z m1712 -56 c34 -29
35 -29 42 -8 5 12 14 19 22 16 7 -3 18 -1 23 4 12 12 63 1 63 -12 0 -11 -14
-17 -50 -22 -30 -5 -33 -28 -4 -42 11 -6 19 -17 16 -25 -2 -8 15 3 39 25 24
22 38 33 31 24 -11 -14 -4 -25 46 -75 32 -33 67 -72 77 -87 10 -15 24 -26 31
-23 8 3 11 0 7 -10 -3 -9 7 -19 31 -29 20 -8 36 -18 36 -20 0 -3 -17 2 -37 10
-21 9 -69 23 -106 31 -75 15 -125 38 -133 59 -3 7 -22 16 -42 20 -25 5 -32 9
-22 15 8 5 11 12 7 16 -3 4 -25 -10 -47 -30 -22 -20 -45 -36 -50 -36 -28 0 -1
-23 76 -65 182 -99 283 -177 290 -223 1 -8 6 -21 10 -30 4 -9 8 -24 10 -32 4
-32 9 -45 21 -50 6 -3 -10 -12 -36 -21 -47 -16 -48 -15 -43 3 2 10 -7 35 -22
56 -23 34 -24 41 -14 75 14 44 2 61 -78 112 -67 43 -315 185 -384 220 -30 16
-50 30 -43 32 6 2 26 -3 43 -12 18 -9 38 -14 46 -11 8 3 12 1 9 -4 -7 -11 69
-52 79 -43 6 6 0 102 -10 171 -3 19 -11 32 -19 32 -8 0 -15 5 -15 10 0 22 66
9 100 -21z m-1360 -84 c0 -5 -5 -3 -10 5 -5 8 -10 20 -10 25 0 6 5 3 10 -5 5
-8 10 -19 10 -25z m2965 -61 c54 -30 68 -34 80 -24 13 11 31 4 103 -40 48 -29
89 -54 91 -56 2 -2 -2 -10 -9 -18 -11 -14 -15 -14 -41 -1 -15 8 -36 15 -45 15
-15 0 -15 -2 2 -21 l19 -21 -40 7 c-22 3 -49 8 -60 9 -61 10 -79 28 -53 54 9
9 2 12 -31 12 l-43 0 6 -32 c3 -18 13 -37 22 -43 129 -81 139 -90 168 -149 40
-83 72 -177 97 -287 11 -52 25 -110 29 -129 23 -92 42 -178 45 -202 2 -15 6
-32 9 -37 3 -5 -1 -11 -9 -15 -8 -3 -17 0 -21 6 -4 7 -3 8 4 4 7 -4 12 -3 12
2 0 6 -6 12 -14 15 -18 7 -15 -35 5 -60 7 -10 9 -15 5 -11 -5 4 -16 2 -24 -5
-13 -9 -14 -9 -8 1 4 6 3 12 -2 12 -5 0 -12 10 -15 23 -3 12 -20 60 -37 107
-48 127 -50 138 -43 201 6 65 -2 77 -19 28 -9 -26 -12 -29 -20 -15 -26 47 -34
103 -26 186 10 100 4 150 -20 157 -12 3 -17 13 -16 31 2 36 -5 52 -22 52 -8 0
-13 5 -11 12 1 6 -25 25 -58 42 -33 17 -60 38 -60 46 0 9 -12 16 -30 18 -16 2
-33 8 -36 13 -3 6 -23 3 -48 -6 -46 -16 -66 -11 -108 28 -16 14 -23 32 -23 57
0 20 -5 41 -12 48 -25 25 22 12 64 -18 l41 -30 23 21 c21 20 23 20 48 4 28
-18 34 -35 14 -35 -20 -1 24 -30 44 -30 15 0 17 5 12 28 -3 15 -15 33 -25 41
-24 17 -24 28 -1 34 9 3 18 5 19 6 1 0 32 -15 68 -35z m-2309 -55 c235 -137
361 -225 401 -280 19 -27 38 -49 42 -49 4 0 26 -27 49 -60 l42 -60 -24 -6
c-49 -12 -60 -2 -113 108 l-53 107 -149 98 c-81 54 -195 126 -252 160 -57 35
-99 63 -93 63 6 0 73 -36 150 -81z m1611 32 c21 -21 21 -25 7 -36 -23 -16 -77
-7 -70 12 3 8 6 28 6 45 0 27 2 29 18 17 9 -7 27 -24 39 -38z m-2830 -77 c-3
-3 -12 -4 -19 -1 -8 3 -5 6 6 6 11 1 17 -2 13 -5z m3603 -185 c0 -9 -42 -5
-59 5 -9 6 -7 11 6 21 15 11 21 11 36 -2 9 -9 17 -20 17 -24z m-10 -69 c0 -31
-16 -41 -26 -15 -5 13 11 45 22 45 2 0 4 -13 4 -30z m-1288 -142 c-5 -7 -8
-24 -6 -37 5 -27 -10 -41 -42 -41 -17 0 -20 5 -16 33 5 35 25 57 55 57 14 0
17 -3 9 -12z m-1998 -22 c7 -30 -2 -58 -18 -53 -13 4 -20 42 -12 63 8 22 23
17 30 -10z m1826 0 c0 -3 -4 -8 -10 -11 -5 -3 -10 -1 -10 4 0 6 5 11 10 11 6
0 10 -2 10 -4z m432 -5 c-11 -7 -11 -11 2 -24 21 -20 20 -24 -4 -37 -15 -8
-21 -6 -30 11 -9 16 -8 24 6 40 9 10 22 19 28 19 6 0 5 -4 -2 -9z m-814 -27
c-16 -8 -28 -17 -28 -20 0 -3 6 -2 13 2 6 4 8 3 4 -1 -14 -16 -37 -14 -47 5
-13 24 -4 30 44 30 l41 -1 -27 -15z m2120 -494 c-7 -11 -15 -15 -17 -9 -2 8
-7 7 -13 -2 -8 -11 -9 -11 -5 1 2 8 9 15 15 15 5 0 14 3 18 8 14 13 14 7 2
-13z"/>
<path d="M2920 2976 c0 -2 8 -10 18 -17 15 -13 16 -12 3 4 -13 16 -21 21 -21
13z"/>
<path d="M1486 2371 c-7 -11 7 -25 45 -43 l36 -16 -11 24 c-11 24 -62 49 -70
35z"/>
<path d="M935 2241 c-3 -5 -2 -12 3 -15 5 -3 9 1 9 9 0 17 -3 19 -12 6z"/>
<path d="M3882 1480 c0 -14 2 -19 5 -12 2 6 2 18 0 25 -3 6 -5 1 -5 -13z"/>
<path d="M3921 1303 c-2 -19 43 -94 62 -105 17 -9 17 -8 2 22 -9 17 -24 39
-34 49 -10 10 -21 25 -24 32 -3 8 -6 9 -6 2z"/>
<path d="M3146 1597 c3 -10 9 -15 12 -12 3 3 0 11 -7 18 -10 9 -11 8 -5 -6z"/>
<path d="M3222 790 c0 -14 2 -19 5 -12 2 6 2 18 0 25 -3 6 -5 1 -5 -13z"/>
</g>
</svg>
