<?xml version="1.0" standalone="no"?>
<!DOCTYPE svg PUBLIC "-//W3C//DTD SVG 20010904//EN"
 "http://www.w3.org/TR/2001/REC-SVG-20010904/DTD/svg10.dtd">
<svg version="1.0" xmlns="http://www.w3.org/2000/svg"
 width="800.000000pt" height="593.000000pt" viewBox="0 0 800.000000 593.000000"
 preserveAspectRatio="xMidYMid meet">

<g transform="translate(0.000000,593.000000) scale(0.100000,-0.100000)"
fill="#000000" stroke="none">
<path d="M533 5888 c-48 -71 -103 -160 -103 -165 0 -2 -11 -19 -24 -36 -13
-18 -58 -95 -100 -172 -43 -77 -81 -147 -86 -155 -23 -36 -63 -125 -71 -154
-4 -17 -15 -56 -24 -86 -16 -51 -33 -124 -56 -230 -25 -117 -17 -384 16 -505
9 -33 21 -96 26 -140 12 -96 40 -203 82 -305 16 -41 38 -105 48 -141 22 -82
53 -145 79 -159 10 -5 27 -24 37 -40 9 -17 25 -30 34 -30 20 0 33 -41 23 -73
-3 -12 -14 -40 -25 -63 -10 -22 -26 -89 -34 -150 -8 -60 -22 -139 -30 -176 -8
-37 -15 -83 -15 -102 0 -35 12 -47 25 -26 9 15 25 12 25 -5 0 -9 -12 -28 -26
-42 -30 -30 -29 -53 11 -134 14 -29 25 -59 25 -66 0 -7 3 -13 8 -13 7 0 32
-48 32 -63 0 -4 15 -23 33 -40 29 -28 37 -47 57 -136 17 -78 33 -120 61 -166
21 -33 42 -76 45 -95 4 -19 15 -47 26 -62 21 -30 68 -140 104 -242 39 -110
127 -268 211 -379 l78 -102 -8 -60 c-5 -33 -17 -78 -28 -101 -12 -25 -21 -69
-24 -119 -3 -43 -7 -90 -10 -104 -5 -28 -22 -162 -29 -227 -7 -64 -18 -118
-26 -129 -11 -14 -41 -230 -46 -335 -2 -49 -30 -218 -40 -244 -10 -26 -23 -18
-19 12 22 173 21 188 -2 214 -13 15 -12 18 6 28 12 6 21 17 21 25 0 14 -32 13
-77 -1 -26 -7 -42 7 -34 29 5 12 6 27 4 33 -5 14 61 34 78 23 42 -27 54 6 73
201 8 80 26 237 40 350 45 376 54 465 46 474 -5 5 -37 3 -75 -4 -73 -14 -83
-10 -91 36 -3 16 -7 31 -10 33 -9 9 -39 -16 -42 -35 -2 -10 -7 -28 -13 -39 -5
-11 -8 -51 -6 -88 4 -70 -9 -174 -24 -192 -4 -6 -10 -35 -14 -65 -6 -59 -10
-96 -20 -177 -6 -49 -5 -52 22 -66 l28 -15 -26 -11 c-23 -8 -27 -17 -30 -54
-4 -50 2 -52 24 -8 11 22 12 33 3 42 -8 10 -6 10 7 0 14 -11 16 -23 11 -70 -3
-31 -6 -63 -7 -72 -1 -15 -4 -15 -24 -2 -21 14 -22 13 -32 -24 -5 -21 -12 -65
-16 -98 -7 -66 -10 -87 -21 -160 -4 -27 -8 -70 -10 -95 -1 -25 -10 -90 -19
-145 -9 -55 -19 -121 -22 -147 l-6 -48 266 0 265 0 6 38 c3 20 10 89 16 152
14 147 16 166 34 280 8 52 20 140 25 195 6 55 17 159 25 230 8 72 20 192 27
268 7 76 15 140 19 142 4 2 17 -3 29 -12 22 -15 23 -20 16 -102 -4 -47 -13
-104 -20 -126 -7 -22 -18 -87 -25 -145 -6 -58 -20 -154 -30 -215 -10 -60 -24
-155 -29 -210 -18 -177 -19 -178 -46 -325 -7 -41 -16 -96 -19 -122 l-6 -48
194 0 194 0 6 31 c3 17 9 85 12 150 6 110 5 119 -10 113 -11 -4 -26 2 -40 15
-17 16 -23 18 -23 7 0 -8 5 -13 11 -10 6 3 3 -1 -7 -9 -10 -9 -18 -18 -18 -21
1 -3 1 -7 0 -8 -1 -3 -8 -67 -11 -95 -1 -7 -5 -13 -10 -13 -5 0 -6 -4 -3 -10
3 -5 -2 -10 -12 -11 -10 -1 -37 -2 -61 -4 -33 -2 -45 2 -53 17 -5 10 -7 22 -4
27 3 5 6 57 6 116 1 81 5 110 17 121 12 13 13 17 3 24 -8 5 -11 18 -8 36 9 45
16 162 22 353 3 96 8 178 11 183 3 5 -1 19 -9 32 -17 25 -15 83 3 117 10 17 9
20 -1 14 -8 -6 -10 -4 -3 6 4 8 9 20 11 28 9 65 7 64 91 55 42 -5 215 -8 383
-6 l305 3 41 -43 c35 -39 41 -52 47 -109 5 -44 18 -83 41 -124 39 -72 85 -218
85 -272 0 -22 9 -66 20 -98 23 -66 25 -89 8 -79 -13 8 -7 -100 17 -301 8 -66
17 -146 20 -177 l6 -58 895 0 c594 0 893 3 889 10 -8 13 18 13 31 0 7 -7 94
-9 241 -8 l232 3 -22 50 c-11 28 -24 52 -27 55 -11 9 -39 75 -44 103 -3 15
-12 41 -20 58 -9 17 -13 35 -11 39 3 5 1 10 -4 12 -6 1 -12 16 -15 31 -3 16
-10 35 -17 43 -6 8 -8 14 -4 14 4 0 3 6 -2 13 -5 6 -10 23 -11 38 -3 46 -32
173 -45 194 -13 20 -35 89 -44 134 -2 14 -8 30 -13 37 -6 6 -11 27 -12 46 -2
20 -6 34 -9 32 -4 -2 -9 5 -12 16 -3 11 -1 20 3 20 11 0 0 71 -13 88 -6 7 -11
40 -13 74 -1 33 -7 65 -13 71 -6 6 -11 19 -11 29 0 10 -9 27 -20 38 -11 11
-17 26 -14 34 3 9 -1 29 -9 46 -9 16 -18 43 -22 60 -4 16 -11 30 -16 30 -6 0
-9 6 -8 13 3 26 -2 35 -23 42 -14 4 -18 8 -10 12 6 2 12 11 12 19 0 9 -4 12
-10 9 -6 -3 -7 1 -4 9 3 9 1 16 -5 16 -6 0 -11 9 -11 19 0 11 -4 23 -10 26 -5
3 -14 25 -21 48 -15 56 -159 354 -214 442 -24 38 -53 78 -65 88 -11 9 -43 52
-70 95 -52 82 -82 120 -145 186 -56 57 -98 113 -126 165 l-23 44 -13 -39 c-7
-21 -17 -46 -21 -54 -5 -8 -17 -46 -26 -83 -14 -54 -15 -71 -5 -83 10 -12 9
-13 -5 -8 -16 6 -20 -3 -16 -41 2 -23 72 -95 92 -95 9 0 9 -3 -2 -10 -13 -8
-13 -10 2 -10 10 0 22 -9 28 -20 12 -23 4 -25 -35 -10 -17 7 -25 16 -23 28 2
10 -9 25 -30 40 -41 28 -55 28 -22 1 14 -12 32 -35 40 -52 11 -24 23 -33 45
-35 17 -2 36 -9 43 -14 7 -6 15 -8 19 -4 3 3 30 -7 60 -24 64 -36 81 -39 32
-6 -20 14 -36 31 -36 39 0 28 65 -32 78 -70 6 -20 27 -57 46 -81 71 -94 132
-245 129 -323 -1 -28 1 -44 3 -37 3 7 10 -18 17 -57 11 -68 11 -97 -2 -59 -16
51 -26 63 -71 90 -26 16 -84 66 -129 111 -44 46 -85 83 -90 83 -5 0 -10 12 -9
28 1 28 -34 88 -89 154 -50 59 -96 126 -96 140 0 7 9 -1 20 -19 23 -38 60 -77
60 -64 0 6 -5 13 -10 16 -6 4 -25 31 -41 61 -17 30 -35 51 -40 48 -5 -3 -9 1
-9 9 0 8 -7 17 -14 20 -12 5 -16 -5 -18 -41 -5 -81 3 -253 12 -247 4 3 6 29 3
57 -2 29 0 64 6 78 9 22 10 20 12 -25 5 -83 5 -120 2 -127 -8 -17 -12 -182 -4
-170 6 11 9 9 13 -6 4 -15 1 -18 -14 -14 -13 3 -19 0 -17 -9 1 -8 -2 -39 -6
-69 -7 -45 -10 -50 -15 -30 l-7 25 -7 -27 c-5 -18 -14 -26 -27 -25 -19 1 -25
17 -12 31 4 3 8 14 9 24 1 9 5 46 9 82 7 69 12 102 14 109 0 2 10 -4 21 -14
20 -18 20 -17 19 31 0 31 -3 42 -8 31 -6 -18 -8 -18 -21 -2 -10 12 -11 18 -2
24 8 5 9 17 2 40 -5 18 -9 62 -8 98 1 43 -3 67 -11 73 -11 6 -11 9 0 13 9 4
10 8 4 14 -7 5 -5 24 5 56 8 27 18 45 22 42 3 -4 1 12 -6 35 -7 23 -20 46 -29
52 -19 10 -23 43 -7 53 5 3 10 26 10 50 0 24 5 45 11 47 9 3 8 11 -2 28 -17
32 -17 37 -3 90 7 25 12 72 12 105 -1 33 2 74 6 90 12 49 6 195 -10 264 -8 35
-12 66 -9 69 3 3 0 11 -6 19 -6 7 -9 13 -5 13 3 0 -1 18 -10 39 -14 37 -14 42
5 82 12 23 21 54 21 68 l1 26 18 -22 c11 -13 18 -40 19 -70 1 -27 7 -64 12
-83 6 -19 10 -47 10 -62 0 -20 14 -39 60 -79 67 -58 71 -74 43 -147 -13 -34
-13 -45 -4 -55 10 -9 12 -9 9 2 -2 10 7 16 25 17 15 2 25 -1 22 -6 -3 -5 -1
-11 5 -15 5 -3 10 -1 10 5 0 35 113 -122 216 -300 38 -65 62 -96 71 -93 10 4
11 9 2 19 -22 27 -2 24 23 -4 75 -79 303 -560 338 -712 6 -30 34 -120 60 -200
64 -193 129 -400 151 -480 31 -116 58 -203 65 -209 6 -6 4 18 -16 214 -5 50
-12 185 -14 300 -5 204 -22 386 -51 530 -14 73 -24 129 -32 180 -2 17 -18 93
-34 169 -28 136 -36 201 -21 181 4 -6 21 -12 37 -13 17 -2 35 -10 42 -19 15
-20 42 -111 83 -279 56 -234 63 -306 65 -694 2 -199 8 -381 14 -415 6 -33 11
-112 11 -175 0 -63 5 -133 11 -155 6 -22 10 -47 10 -55 0 -8 -1 -35 -1 -60 0
-24 -4 -47 -9 -50 -7 -5 109 -496 123 -519 5 -8 159 -11 511 -11 l505 0 -10
26 c-6 14 -8 29 -5 34 3 4 -2 13 -9 19 -8 7 -13 23 -11 36 1 14 -6 32 -16 41
-10 9 -16 21 -13 26 3 5 -6 26 -20 47 -16 23 -36 78 -51 142 -14 57 -37 148
-52 201 -22 81 -24 100 -13 113 9 10 11 32 7 68 l-5 52 23 -50 c46 -102 149
-428 138 -438 -2 -3 1 -25 7 -49 17 -64 27 -105 45 -191 12 -54 22 -77 32 -77
10 0 14 7 10 19 -3 13 -1 18 9 14 7 -2 10 -11 7 -19 -4 -11 7 -14 51 -14 31 0
56 2 56 4 0 2 -14 19 -31 37 l-31 33 28 8 c21 6 32 4 40 -7 16 -22 45 -20 37
3 -5 13 0 11 20 -7 15 -14 27 -19 27 -13 0 8 7 9 26 2 38 -15 51 -12 49 9 -2
29 -36 103 -59 129 -12 13 -20 24 -18 25 11 6 -15 40 -35 48 -22 8 -23 12 -12
27 7 9 9 14 4 9 -10 -9 -45 21 -45 40 0 7 5 13 10 13 6 0 10 -5 10 -11 0 -5 4
-8 9 -5 8 5 -1 41 -30 111 -6 17 -13 43 -16 60 -2 16 -8 45 -13 63 -8 30 -7
33 8 28 12 -4 11 -1 -4 11 -12 10 -29 32 -37 48 -8 17 -25 40 -37 53 -23 24
-19 41 8 43 11 1 8 4 -8 9 -14 4 -19 8 -12 9 6 1 12 5 12 11 0 5 -8 9 -17 7
-10 -1 -20 3 -22 8 -9 20 -71 82 -84 83 -83 8 -110 12 -115 16 -3 3 3 7 14 7
10 1 24 2 29 4 6 1 18 3 28 3 16 2 16 4 2 33 -9 17 -31 37 -50 45 -19 7 -38
20 -42 27 -4 8 -18 19 -30 26 -13 6 -34 35 -47 64 -14 28 -25 46 -25 39 -1 -7
4 -22 9 -33 7 -13 7 -19 0 -19 -5 0 -10 4 -10 10 0 16 -81 183 -86 177 -6 -5
31 -106 70 -189 37 -80 45 -101 76 -200 29 -90 28 -109 -2 -60 -10 15 -18 21
-18 15 0 -18 -20 -16 -20 2 0 8 -9 23 -21 34 -12 11 -19 23 -16 28 2 4 0 19
-6 33 -5 14 -11 40 -13 59 -2 19 -7 37 -13 40 -5 3 -8 30 -7 59 1 33 -3 57
-11 64 -7 6 -13 16 -13 23 0 6 -9 22 -19 34 -11 13 -23 36 -26 52 -4 17 -13
29 -22 29 -10 0 -13 6 -9 16 3 9 2 12 -5 9 -6 -4 -9 -1 -7 6 3 16 -53 119 -64
119 -5 0 -8 7 -8 15 0 7 -6 18 -13 22 -20 13 -44 55 -52 93 -4 19 -18 51 -31
70 -13 19 -24 38 -24 43 0 4 -12 26 -26 48 -14 23 -23 43 -21 45 2 3 24 -26
47 -63 24 -37 55 -86 70 -108 15 -22 55 -92 90 -155 78 -143 90 -163 96 -157
3 2 -18 44 -46 92 -27 48 -50 89 -50 90 0 3 -90 152 -123 202 -15 24 -27 46
-27 50 -1 15 -60 77 -60 64 0 -10 -3 -11 -13 -2 -8 6 -18 7 -22 3 -5 -4 -5 1
-2 11 4 10 2 17 -6 17 -7 0 -25 23 -40 50 -16 28 -32 50 -37 50 -5 0 -12 10
-16 22 -3 12 -13 29 -22 37 -13 13 -14 12 -7 -9 4 -14 20 -65 35 -115 31 -102
52 -208 81 -410 11 -77 22 -147 24 -155 2 -8 7 -31 10 -50 11 -74 17 -99 51
-220 20 -69 43 -138 51 -155 8 -16 17 -54 20 -83 5 -45 3 -52 -12 -52 -24 0
-73 37 -80 61 -4 12 -14 30 -23 40 -20 23 -41 101 -42 154 0 22 -5 56 -10 75
-5 19 -16 64 -25 100 -9 36 -20 70 -25 75 -14 17 -60 298 -60 363 0 31 -10
108 -22 171 -17 87 -20 115 -10 119 9 3 9 9 1 23 -5 11 -8 23 -5 28 5 7 -4 48
-34 146 -34 116 -58 210 -54 217 16 25 36 -10 54 -97 20 -91 65 -167 160 -271
11 -12 20 -27 20 -33 0 -6 9 -16 20 -23 11 -7 20 -16 20 -21 0 -13 52 -57 60
-52 4 3 11 -2 14 -11 4 -10 2 -13 -7 -8 -6 4 -2 -4 11 -18 12 -13 19 -28 15
-33 -5 -4 -2 -5 4 -1 13 7 56 -51 47 -65 -2 -5 5 -13 16 -19 11 -6 20 -15 20
-21 0 -6 -6 -7 -12 -3 -8 4 -10 3 -5 -2 5 -5 12 -9 15 -9 12 0 107 -108 180
-205 133 -175 205 -264 228 -282 l23 -18 -9 32 c-6 17 -14 36 -20 42 -5 5 -10
18 -10 28 0 10 -5 18 -11 18 -12 0 -8 62 5 71 11 8 46 -1 46 -11 0 -5 13 -11
29 -15 23 -5 35 -18 55 -61 14 -30 26 -60 26 -66 0 -6 2 -9 5 -6 3 3 -11 61
-31 129 -56 187 -59 169 33 201 97 34 111 35 123 3 12 -31 30 -33 30 -2 0 18
16 30 85 65 47 23 103 45 124 48 l40 6 12 -46 c15 -60 32 -54 39 12 3 28 8 53
10 55 24 23 202 77 228 70 13 -3 24 -23 36 -64 9 -33 14 -64 12 -68 -3 -4 1
-26 9 -48 21 -61 6 -103 -45 -126 -22 -9 -47 -17 -54 -17 -8 0 -18 -4 -21 -10
-7 -11 -55 -9 -55 2 0 4 5 8 12 8 6 0 9 2 6 5 -8 9 -58 -17 -58 -30 0 -7 -13
-9 -34 -7 -26 3 -37 -1 -50 -20 -9 -12 -20 -23 -24 -23 -4 -1 -16 -6 -27 -12
-37 -20 -92 -32 -103 -21 -7 7 -23 6 -49 -4 -21 -9 -44 -13 -51 -11 -8 3 -18
-8 -25 -26 -9 -24 -22 -34 -57 -46 -25 -9 -54 -22 -65 -30 -19 -15 -19 -16 2
-37 20 -19 27 -21 68 -11 50 11 50 12 60 -35 9 -43 31 -41 42 5 7 31 17 41 68
70 33 18 82 40 109 48 59 18 76 9 76 -40 0 -41 24 -65 38 -38 5 10 7 35 5 56
-5 43 13 71 50 80 12 3 48 14 79 26 71 26 114 27 126 4 6 -10 13 -41 17 -68 7
-55 19 -83 28 -68 9 14 10 70 3 124 -5 41 -3 49 18 62 31 21 190 59 228 55 29
-3 31 -7 50 -78 10 -41 17 -86 16 -99 -3 -28 -2 -27 -173 -66 -66 -14 -145
-33 -175 -42 -60 -16 -77 -21 -195 -53 -44 -12 -102 -28 -129 -36 -26 -8 -54
-14 -61 -14 -12 0 -247 -69 -253 -75 -6 -5 45 -111 80 -165 48 -76 125 -240
154 -330 29 -89 65 -161 77 -153 4 2 4 10 -2 17 -5 6 -6 18 -2 25 6 9 11 10
15 2 4 -6 1 -11 -6 -11 -7 -1 -1 -8 15 -16 15 -8 27 -19 27 -24 0 -6 7 -10 15
-10 23 0 65 -49 66 -78 0 -15 3 -36 6 -47 4 -18 9 -66 12 -117 1 -13 9 -18 31
-18 17 0 30 4 30 9 0 5 -9 96 -21 203 -11 106 -19 225 -17 263 3 65 5 70 25
69 19 0 21 2 10 14 -10 13 -9 14 12 3 13 -7 21 -8 17 -3 -3 6 -2 13 4 17 5 3
10 1 10 -4 0 -19 20 -12 21 7 0 10 3 12 6 5 2 -7 11 -13 19 -13 9 0 13 4 9 9
-3 5 0 13 6 17 7 4 9 3 5 -4 -3 -6 -2 -13 4 -17 5 -3 10 -2 10 3 0 5 12 8 28
7 17 -1 34 6 45 19 10 12 15 15 11 7 -4 -8 -3 -12 3 -8 26 16 72 16 91 -1 23
-19 56 -151 92 -362 46 -269 61 -296 31 -54 -36 283 -39 437 -9 418 8 -5 9 -1
5 10 -4 10 -3 15 3 11 6 -3 10 -1 10 4 0 6 5 11 11 11 5 0 7 -6 3 -12 -5 -8 0
-7 11 2 10 8 16 10 12 3 -4 -6 -3 -14 3 -18 5 -3 10 -1 10 5 0 6 4 9 9 6 4 -3
23 -1 40 4 30 8 31 8 19 -7 -10 -13 -10 -15 0 -9 7 4 20 2 30 -6 16 -12 16
-11 2 6 -14 18 -14 19 8 7 20 -11 22 -9 22 11 1 22 1 22 15 4 15 -19 15 -19
15 5 0 18 3 21 9 10 12 -18 39 -23 48 -9 4 7 1 8 -8 3 -8 -5 -11 -4 -6 1 11
12 40 11 49 -1 4 -6 8 -1 9 10 l0 20 9 -20 c5 -11 9 -14 9 -7 1 6 8 12 17 12
10 0 14 -6 11 -14 -4 -10 -1 -13 8 -10 19 8 29 -16 58 -136 30 -126 43 -189
67 -339 12 -72 29 -113 30 -71 0 14 -7 63 -14 110 -8 47 -18 109 -21 139 -4
30 -9 63 -11 75 -2 11 -7 73 -10 137 -6 109 -6 117 12 123 11 3 29 4 42 1 13
-2 20 0 17 6 -4 5 -11 7 -16 4 -5 -4 -9 -2 -9 3 0 15 30 23 30 9 0 -7 7 -3 15
7 13 17 15 17 15 4 0 -9 4 -20 10 -23 6 -4 7 1 3 11 -5 13 -3 15 7 9 8 -5 26
-10 40 -11 21 -3 22 -1 7 7 -9 6 -22 7 -29 3 -7 -5 -8 -3 -4 5 5 7 15 10 23 7
8 -3 20 -3 26 1 18 11 38 12 32 2 -4 -5 1 -6 9 -3 9 3 16 10 16 14 0 12 29 20
35 10 3 -5 0 -12 -6 -16 -8 -5 -9 -3 -4 6 5 9 4 11 -4 6 -15 -10 -4 -27 13
-20 7 3 18 15 24 27 6 12 11 16 11 10 1 -7 8 -13 17 -13 8 0 12 4 9 10 -3 5 1
10 10 10 10 0 14 -5 10 -12 -4 -7 0 -5 8 5 15 18 16 17 22 -4 7 -20 8 -20 17
-6 5 10 17 17 26 17 15 0 15 -2 2 -11 -12 -8 -9 -10 13 -6 15 2 25 2 22 -1 -3
-3 1 -15 8 -26 21 -31 75 -224 93 -327 3 -14 20 -86 40 -160 19 -74 36 -151
38 -171 2 -21 4 -42 5 -48 0 -5 15 -10 31 -10 l30 0 0 755 c0 630 -2 755 -14
755 -7 0 -48 -11 -90 -24 -42 -14 -103 -30 -134 -37 -31 -6 -141 -38 -245 -70
-103 -33 -201 -60 -219 -61 -29 -3 -33 1 -49 42 l-17 45 -7 -52 c-4 -29 -12
-56 -18 -61 -28 -21 -278 -88 -299 -80 -17 7 -34 120 -22 140 5 7 7 25 6 40
-2 22 4 31 30 44 45 23 88 64 88 85 0 32 -23 69 -42 69 -10 0 -36 -9 -58 -20
-22 -11 -48 -20 -58 -20 -10 0 -27 -9 -37 -20 -10 -11 -30 -20 -44 -20 -14 0
-71 -16 -126 -35 -146 -52 -151 -47 -160 148 -4 94 -3 98 20 113 29 19 153 51
214 56 l44 3 18 -70 c10 -38 19 -84 19 -101 0 -16 7 -39 16 -50 14 -17 15 -13
9 56 -11 136 -6 178 26 200 12 8 37 30 56 48 29 27 34 37 28 60 -3 15 -15 36
-25 47 -20 19 -20 19 -65 -3 -25 -12 -53 -22 -63 -22 -9 0 -23 -9 -30 -20 -7
-11 -23 -20 -37 -20 -14 0 -41 -7 -60 -14 -19 -8 -35 -12 -35 -9 0 3 -7 0 -15
-7 -8 -7 -15 -10 -15 -6 0 3 -11 1 -24 -4 -16 -6 -27 -5 -35 3 -10 9 -15 9
-24 -3 -7 -9 -24 -14 -45 -12 -26 3 -34 -1 -41 -22 -11 -26 -75 -60 -144 -76
l-39 -8 24 25 23 26 -22 -12 c-13 -6 -23 -9 -23 -6 0 3 -18 -7 -40 -21 -22
-14 -46 -24 -54 -21 -9 4 -22 -5 -33 -23 -10 -15 -22 -29 -28 -30 -5 -1 -21
-7 -35 -12 -50 -21 -89 -26 -84 -13 4 9 -3 11 -20 8 -14 -3 -26 -9 -26 -14 0
-5 -3 -8 -7 -8 -5 1 -22 1 -40 0 -26 -1 -32 -6 -38 -30 -4 -20 -16 -33 -38
-42 -18 -8 -34 -14 -37 -14 -7 0 -88 -34 -112 -46 -14 -7 -23 -1 -43 31 -16
25 -30 38 -38 34 -9 -5 -9 -4 0 6 14 15 2 60 -29 109 -13 20 -31 50 -39 66 -9
17 -21 29 -28 27 -6 -1 -22 -2 -34 -2 -29 0 -136 17 -119 19 13 1 -42 61 -56
61 -4 0 -16 14 -27 30 -11 17 -25 28 -32 26 -14 -6 -23 16 -17 41 4 12 -6 28
-28 48 -102 89 -264 251 -268 268 -3 11 -12 23 -19 25 -9 3 -11 0 -6 -9 5 -8
-1 -6 -13 4 -18 17 -20 26 -15 86 5 57 2 74 -17 111 -25 49 -86 112 -152 158
-24 17 -52 44 -63 61 -11 17 -23 31 -27 31 -5 0 -8 5 -8 11 0 6 -10 19 -21 28
-22 17 -21 18 33 44 119 58 338 300 535 592 35 52 72 156 54 153 -3 0 -9 1
-13 2 -5 1 -13 3 -20 4 -6 0 -13 11 -15 24 -2 14 1 21 7 17 5 -3 10 1 10 9 0
23 50 73 59 58 4 -7 20 14 40 55 18 36 55 92 83 124 45 52 50 62 46 96 -3 24
2 54 14 83 11 25 28 82 39 128 25 106 27 110 50 117 19 6 72 78 84 114 3 12
10 21 15 21 12 0 70 57 70 68 0 5 12 14 26 20 14 7 23 16 20 21 -7 11 19 33
28 24 4 -4 4 0 1 9 -5 11 2 22 20 34 20 13 23 19 13 25 -9 6 -6 9 10 9 12 0
22 5 22 11 0 16 26 39 36 31 5 -4 2 1 -5 11 -11 14 -11 17 1 17 11 0 14 9 12
30 -2 17 1 30 7 30 8 0 8 4 0 13 -8 10 -6 19 9 35 21 22 25 37 13 45 -5 2 -3
2 4 1 14 -3 55 75 46 89 -3 6 -1 7 5 3 7 -4 12 -2 12 3 0 6 -5 11 -11 11 -6 0
-9 6 -6 13 2 6 -3 20 -11 30 -13 15 -14 20 -3 26 9 6 10 14 5 22 -5 8 -7 24
-5 37 1 13 -3 30 -9 38 -7 8 -10 27 -7 43 4 19 1 33 -8 41 -11 10 -15 10 -15
1 0 -7 -4 -9 -10 -6 -5 3 -10 -1 -10 -9 0 -9 -4 -16 -9 -16 -5 0 -7 9 -4 20 3
11 9 20 13 20 5 0 -6 15 -23 33 -19 19 -35 28 -39 22 -5 -7 -8 -6 -8 1 0 5 4
14 9 20 5 5 3 21 -4 38 -10 24 -13 26 -19 10 -4 -9 -2 -21 5 -24 8 -6 8 -9 0
-14 -19 -12 -32 3 -21 24 8 14 5 19 -12 23 -19 5 -20 8 -7 23 8 10 9 15 2 11
-14 -9 -45 2 -37 14 3 5 -2 6 -10 3 -8 -3 -12 -12 -9 -20 3 -8 10 -11 16 -7 5
3 7 1 4 -5 -10 -15 -49 -2 -43 14 6 16 -10 28 -19 14 -3 -5 -12 -10 -18 -10
-8 0 -8 3 1 9 12 7 12 12 0 30 -15 25 -34 22 -30 -5 2 -14 -5 -11 -26 13 -22
25 -31 30 -40 21 -9 -9 -12 -7 -12 10 0 15 -6 22 -19 22 -11 0 -21 5 -23 10
-4 13 -78 20 -78 7 0 -5 -6 -7 -14 -4 -8 3 -17 1 -20 -6 -2 -7 -4 -3 -4 8 2
38 -2 56 -11 50 -5 -3 -12 4 -16 15 -4 11 -11 18 -16 15 -5 -4 -9 -1 -9 4 0
19 -30 12 -38 -9 -8 -20 -8 -20 -32 5 -21 23 -79 37 -66 16 7 -11 -22 -23 -36
-15 -7 5 -4 12 7 21 18 12 18 13 -3 13 -12 0 -22 -4 -22 -10 0 -5 -7 -7 -15
-4 -8 3 -14 9 -13 12 0 4 0 15 -1 25 -1 17 -2 17 -17 2 -10 -10 -20 -12 -28
-7 -6 5 -20 6 -31 2 -13 -4 -26 -1 -39 11 -10 10 -23 16 -29 12 -5 -3 -3 -9 4
-14 8 -5 9 -9 4 -9 -6 0 -17 6 -23 12 -10 10 -15 10 -20 1 -4 -6 -16 -13 -27
-15 -15 -2 -19 2 -17 16 2 11 -1 16 -10 13 -7 -2 -12 -11 -12 -20 1 -13 -2
-14 -17 -6 -11 5 -19 7 -19 3 0 -3 -9 4 -21 17 -19 22 -20 23 -14 3 3 -14 1
-21 -9 -21 -9 0 -12 5 -9 10 4 6 0 8 -10 4 -10 -4 -17 -1 -17 5 0 7 -6 4 -12
-5 -13 -16 -33 -18 -55 -4 -6 4 -15 3 -18 -3 -5 -8 -12 -7 -23 2 -13 11 -15
11 -9 -4 4 -13 1 -16 -14 -13 -10 2 -23 6 -28 9 -5 3 -11 -4 -15 -17 -5 -17
-8 -19 -15 -8 -7 11 -13 11 -37 -3 -16 -8 -37 -18 -46 -22 -10 -3 -18 -13 -18
-20 0 -8 -5 -14 -11 -14 -5 0 -7 5 -4 10 3 6 4 10 2 10 -3 0 -17 -20 -31 -45
-15 -25 -31 -45 -36 -45 -6 0 -10 -6 -10 -14 0 -7 -7 -19 -15 -26 -9 -7 -13
-15 -11 -17 5 -6 2 -11 -44 -63 -16 -19 -33 -44 -36 -55 -7 -21 -41 -55 -56
-55 -4 0 -8 -7 -8 -17 0 -9 -3 -13 -7 -10 -3 4 -18 -10 -31 -31 -14 -20 -28
-39 -31 -42 -7 -6 -44 -72 -65 -115 -35 -72 -47 -108 -70 -203 -13 -55 -39
-131 -57 -168 -17 -38 -32 -83 -33 -101 -1 -17 -4 -29 -8 -27 -13 8 -18 -15
-8 -42 15 -38 4 -42 -28 -11 -42 41 -65 35 -104 -25 -67 -104 -78 -128 -84
-175 l-6 -48 30 50 c32 53 108 133 117 123 14 -14 -10 -55 -46 -81 -22 -15
-47 -42 -55 -61 -15 -31 -15 -35 1 -60 16 -24 31 -30 80 -27 11 0 14 -2 8 -5
-16 -7 -17 -46 -1 -62 20 -20 30 -14 17 11 -11 20 -11 21 4 8 10 -7 17 -12 18
-10 0 2 2 15 3 29 2 14 7 34 11 45 8 18 7 19 -8 6 -10 -8 -21 -11 -24 -7 -13
13 13 41 75 81 35 23 63 49 67 63 3 12 10 22 16 22 16 0 37 25 45 54 3 14 10
23 15 20 5 -3 25 11 45 30 21 20 33 36 29 36 -5 0 -3 6 3 12 10 10 15 10 22
-2 8 -12 10 -10 10 8 0 13 6 22 13 21 28 -3 37 2 37 22 0 15 5 19 16 15 8 -3
13 -2 10 3 -8 13 14 27 53 35 18 3 41 14 50 24 17 18 38 21 57 10 12 -8 64 12
64 25 0 4 10 7 23 7 23 1 57 21 57 35 0 4 -6 2 -14 -4 -12 -10 -16 -6 -22 21
-6 29 -8 30 -15 13 -11 -28 -11 -37 1 -30 6 3 7 -1 4 -9 -3 -9 -12 -16 -19
-16 -7 0 -20 -3 -29 -6 -12 -4 -16 0 -16 15 0 12 5 21 11 21 7 0 9 10 7 25 -4
16 -1 22 6 18 8 -5 8 -3 0 8 -7 8 -8 22 -4 34 l8 20 8 -20 c13 -31 47 -56 72
-51 19 3 22 0 17 -18 -5 -19 -4 -18 7 2 8 15 18 22 30 19 10 -3 16 -1 12 4 -3
5 1 9 10 9 8 0 16 5 18 11 2 6 21 13 41 15 21 2 36 0 33 -4 -2 -4 9 -7 25 -8
17 -1 26 3 22 9 -4 6 -1 7 8 1 8 -4 25 -7 38 -5 13 1 21 -1 17 -7 -3 -6 2 -8
13 -5 12 3 24 -3 35 -18 9 -13 16 -18 16 -12 0 6 18 -6 40 -26 24 -22 40 -45
40 -59 0 -13 -4 -20 -10 -17 -6 3 -13 -1 -16 -10 -4 -10 -13 -13 -25 -10 -11
4 -19 2 -19 -4 0 -6 5 -10 12 -8 7 1 12 -4 13 -11 0 -7 7 -17 15 -22 12 -8 13
-12 2 -19 -11 -7 -11 -9 2 -14 9 -4 15 -1 13 5 -1 6 5 13 13 16 8 2 12 1 7 -3
-12 -13 45 -46 59 -34 11 9 25 -9 28 -34 1 -5 8 -14 16 -20 8 -7 21 -24 29
-39 13 -26 12 -29 -14 -54 -28 -26 -28 -27 -9 -41 13 -9 35 -13 67 -9 26 2 45
1 43 -2 -6 -10 16 -36 32 -39 6 -2 12 4 12 12 0 18 16 20 26 3 5 -7 3 -8 -6
-3 -9 5 -11 4 -6 -3 10 -17 15 -15 26 11 7 18 9 18 9 4 1 -12 6 -16 14 -11 6
4 9 4 5 -1 -4 -4 -3 -14 4 -22 9 -11 14 -11 28 2 15 14 16 13 14 -7 -1 -13 -3
-28 -3 -34 -1 -6 -19 -9 -42 -8 -30 1 -39 -1 -35 -11 3 -9 -3 -12 -20 -10 -13
1 -27 -2 -30 -6 -3 -5 -13 -5 -23 1 -10 5 -34 11 -52 13 -37 4 -75 21 -81 36
-1 5 -22 12 -45 14 -53 6 -62 12 -56 37 3 12 -1 22 -11 26 -9 3 -16 13 -16 22
0 15 -2 15 -17 0 -13 -14 -14 -20 -3 -32 7 -9 18 -16 25 -16 14 0 14 -24 1
-37 -4 -4 -6 -1 -4 7 2 10 -6 16 -24 18 -16 2 -28 7 -28 12 0 9 -51 39 -185
110 -34 18 -82 34 -111 37 -44 5 -54 2 -79 -21 -34 -31 -63 -33 -99 -5 -15 11
-34 18 -44 15 -21 -7 -71 -52 -94 -84 -15 -22 -15 -25 0 -45 33 -41 68 -70 95
-79 15 -6 26 -12 23 -15 -2 -3 2 -12 9 -21 48 -58 105 -137 106 -146 1 -6 3
-27 4 -47 1 -20 6 -42 10 -48 7 -13 55 -35 68 -33 4 1 7 -4 7 -12 0 -8 3 -22
6 -31 5 -11 2 -16 -7 -15 -25 4 -40 0 -35 -9 3 -4 -3 -16 -14 -26 -10 -9 -16
-23 -13 -31 3 -8 0 -14 -6 -14 -6 0 -11 5 -11 11 0 8 -6 7 -17 -2 -14 -12 -15
-12 -9 -1 7 11 4 12 -12 3 -36 -19 -60 -12 -101 31 -23 23 -39 44 -36 46 6 7
-37 38 -47 34 -5 -1 -8 3 -8 10 0 6 -3 8 -6 5 -4 -3 -15 5 -26 18 -11 14 -24
23 -29 20 -5 -4 -9 -2 -9 2 0 5 -16 17 -35 27 -19 11 -35 23 -35 28 0 4 -5 8
-11 8 -6 0 -17 7 -25 15 -9 8 -12 15 -8 15 4 0 -1 6 -12 14 -17 13 -21 12 -37
-1 -10 -9 -17 -30 -17 -50 0 -18 -4 -33 -8 -33 -4 0 -8 -9 -8 -20 0 -11 5 -20
10 -20 5 0 1 -9 -9 -20 -16 -18 -16 -20 -1 -26 9 -3 16 -10 16 -16 0 -5 -4 -7
-8 -4 -4 2 -14 -5 -22 -17 -12 -20 -12 -21 4 -8 14 12 16 12 10 -3 -3 -9 -10
-16 -16 -16 -5 0 -6 -4 -3 -10 3 -5 0 -10 -7 -10 -9 0 -9 -3 2 -10 11 -7 11
-10 2 -10 -7 0 -10 -5 -7 -10 4 -6 3 -10 -2 -9 -20 3 -27 -2 -13 -12 13 -9 13
-10 0 -8 -8 1 -32 -5 -52 -14 -21 -10 -42 -17 -47 -17 -6 0 -15 -8 -20 -17 -6
-11 -11 -13 -11 -5 0 9 -5 10 -17 4 -26 -13 -47 -4 -32 14 11 14 10 15 -13 18
-7 1 -12 10 -11 21 1 11 0 14 -3 8 -3 -7 -5 -15 -4 -19 1 -3 -9 -14 -21 -25
-12 -10 -17 -19 -10 -19 8 0 7 -5 -3 -16 -9 -8 -16 -27 -16 -42 0 -33 -19 -68
-20 -37 -1 16 -2 17 -9 5 -9 -15 -39 -159 -40 -192 -2 -37 -5 -48 -12 -48 -4
0 -6 -9 -4 -20 2 -11 2 -20 -1 -20 -16 0 -267 122 -275 133 -3 5 -16 54 -28
110 -12 56 -31 120 -42 143 -10 23 -19 49 -19 58 0 9 -9 41 -19 71 -11 31 -23
80 -26 109 -9 67 -34 110 -77 132 -41 21 -157 106 -158 117 0 4 18 8 40 8 49
2 46 1 95 23 22 10 49 18 61 18 19 0 34 18 80 98 l22 37 -22 19 c-11 10 -22
17 -23 16 -2 -1 -5 -1 -8 -1 -19 5 -31 3 -37 -6 -5 -6 -8 -5 -8 3 0 7 -4 10
-10 7 -5 -3 -10 -1 -10 6 0 7 -3 10 -6 6 -3 -3 -17 -2 -31 4 -18 7 -22 6 -17
-3 4 -6 -8 0 -27 15 -39 29 -114 42 -138 23 -11 -8 -13 -8 -7 2 9 16 -6 16
-23 0 -8 -8 -11 -8 -8 -2 4 7 -3 12 -20 12 -15 0 -29 5 -31 11 -2 6 -8 9 -12
6 -5 -3 -17 6 -27 21 -10 14 -26 34 -35 45 -10 10 -18 21 -18 24 0 3 -7 19
-15 35 -9 17 -13 35 -10 40 3 5 0 7 -8 4 -17 -6 -49 34 -40 49 3 6 1 7 -6 3
-6 -4 -8 -13 -4 -19 5 -8 2 -8 -9 0 -8 7 -18 10 -21 6 -4 -3 -16 2 -27 12 -11
10 -20 15 -20 12 0 -4 -18 3 -40 14 -22 12 -37 25 -34 30 3 5 0 8 -8 7 -7 -2
-12 3 -10 10 1 8 -2 11 -8 7 -6 -3 -8 -10 -5 -15 3 -5 1 -11 -4 -14 -6 -4 -8
7 -6 24 2 17 0 28 -5 25 -5 -3 -12 1 -17 8 -4 8 -26 24 -49 35 -22 11 -46 28
-53 36 -7 9 -17 14 -21 11 -4 -3 -10 1 -13 8 -6 15 0 16 208 19 120 2 156 -1
210 -17 40 -12 52 20 58 150 3 66 8 140 11 165 7 54 33 113 49 107 7 -2 17 2
22 9 8 10 26 9 90 -1 44 -8 99 -14 121 -14 24 -1 47 -7 54 -16 10 -12 16 -13
27 -4 9 8 35 9 86 3 64 -7 140 -7 258 0 20 1 48 10 62 19 15 9 29 17 32 17 11
0 47 37 67 68 26 43 26 74 -1 103 -14 16 -21 18 -21 8 0 -12 -2 -12 -9 0 -5 8
-14 10 -21 6 -8 -5 -11 -4 -7 2 4 6 0 14 -9 17 -10 4 -13 2 -9 -7 4 -6 1 -5
-7 3 -7 8 -22 17 -33 18 -11 2 -26 9 -34 15 -12 9 -13 9 -7 -1 4 -6 -9 -3 -28
9 -20 12 -36 18 -36 15 0 -4 -13 0 -29 8 -22 12 -31 12 -41 3 -10 -9 -11 -9
-6 1 5 8 -3 12 -27 12 -19 0 -50 6 -68 14 -33 14 -101 66 -87 66 4 0 0 10 -10
21 -31 39 -112 120 -112 114 0 -4 -13 3 -29 14 -29 21 -35 21 -989 21 l-959 0
-43 -47 c-114 -130 -206 -218 -224 -215 -12 3 -16 0 -11 -8 8 -13 -27 2 -54
24 -16 13 -61 16 -61 4 0 -4 -4 -7 -8 -5 -20 6 -114 -66 -147 -112 -20 -28
-39 -51 -42 -51 -2 0 -1 4 2 10 6 10 15 43 19 70 3 26 49 114 67 130 10 8 30
24 45 35 26 18 50 38 124 102 14 12 36 31 50 42 l25 20 -112 1 -113 0 -27 -42z
m938 -580 c8 -15 7 -23 -8 -34 -39 -29 -67 -3 -43 41 14 26 35 23 51 -7z
m-403 -18 c1 -1 5 -3 10 -5 4 -1 20 -7 35 -13 16 -7 33 -12 38 -12 5 0 9 -4 9
-9 0 -5 8 -8 18 -7 9 0 16 -4 15 -11 -1 -6 5 -10 14 -9 21 3 43 -15 35 -28 -3
-5 2 -7 10 -3 9 3 24 -3 34 -14 15 -16 15 -24 -1 -16 -2 1 -12 -9 -21 -22 -13
-18 -18 -20 -25 -10 -7 11 -9 11 -9 -1 0 -13 -1 -13 -10 0 -8 12 -10 12 -10 1
0 -11 -5 -9 -22 5 -13 12 -18 13 -13 4 8 -13 6 -13 -8 -1 -24 19 -187 18 -187
-1 0 -5 -4 -7 -10 -3 -11 7 -73 -26 -111 -59 -16 -14 -33 -26 -38 -26 -6 0
-16 -9 -24 -20 -8 -11 -17 -17 -20 -13 -4 3 -7 2 -7 -4 0 -5 -22 -34 -48 -63
l-49 -53 -21 21 c-12 12 -28 22 -34 22 -9 0 -8 4 2 10 13 9 13 10 0 10 -9 0
-11 3 -5 8 6 4 11 12 12 17 2 15 32 81 33 73 0 -4 24 18 53 49 55 59 218 178
252 185 20 3 98 2 103 -2z m4802 -79 c0 -5 -6 -14 -14 -20 -12 -10 -13 -8 -9
8 5 21 23 30 23 12z m-4530 -57 c0 -8 -19 -13 -24 -6 -3 5 1 9 9 9 8 0 15 -2
15 -3z m71 -67 c0 -21 1 -21 9 -2 7 17 9 17 9 3 1 -10 6 -18 11 -18 6 0 10 -5
10 -11 0 -8 -4 -8 -14 0 -11 9 -15 9 -19 -1 -3 -7 -8 2 -12 19 -4 18 -11 30
-16 27 -5 -3 -6 -10 -3 -16 4 -7 2 -8 -5 -4 -9 6 -9 11 0 22 15 18 29 9 30
-19z m63 -14 c3 -7 11 -13 18 -13 9 0 8 3 -2 10 -12 8 -11 10 6 10 11 0 26 -6
33 -12 11 -10 13 -10 7 0 -4 6 -2 12 4 12 6 0 13 -7 16 -15 5 -13 9 -13 22 -3
13 11 15 10 10 -3 -3 -9 -2 -22 4 -30 8 -11 9 -10 4 4 -6 20 -5 20 28 8 17 -7
26 -7 30 2 2 7 5 4 5 -7 1 -15 4 -16 15 -7 16 13 17 -1 2 -29 -4 -8 2 -4 13 9
17 19 24 21 36 11 8 -7 15 -9 15 -4 0 5 7 0 16 -11 13 -17 16 -18 24 -5 5 8
10 10 10 4 0 -6 11 -23 25 -37 19 -18 22 -27 14 -33 -7 -4 -9 -3 -6 3 4 6 1
13 -6 16 -16 6 -49 -17 -39 -28 4 -5 1 -5 -6 -1 -7 5 -11 14 -8 22 3 7 1 16
-5 19 -5 4 -7 10 -5 14 3 4 0 13 -5 21 -9 13 -10 13 -6 0 2 -8 -3 -21 -12 -28
-14 -10 -14 -11 0 -7 11 4 15 -1 15 -19 0 -14 -4 -22 -8 -20 -5 3 -6 10 -3 15
4 5 1 9 -4 9 -6 0 -11 -8 -11 -17 0 -15 -2 -14 -16 3 -8 10 -13 13 -9 7 4 -8
0 -13 -10 -13 -9 0 -13 5 -10 10 3 6 3 10 -2 11 -53 6 -64 5 -59 -8 3 -8 1
-11 -4 -8 -6 3 -10 13 -10 20 0 9 -6 12 -15 9 -8 -4 -15 -1 -15 6 0 9 -4 9
-17 -1 -10 -7 -15 -9 -11 -5 4 5 3 15 -3 23 -9 10 -15 10 -25 2 -11 -9 -16 -6
-23 12 -5 13 -10 18 -10 12 -1 -7 -6 -13 -12 -13 -5 0 -7 5 -3 12 5 8 2 9 -9
5 -24 -9 -32 12 -11 28 15 10 16 16 6 27 -9 12 -9 15 3 15 8 0 16 -6 19 -14z
m2806 -243 c0 -5 -5 -10 -11 -10 -5 0 -7 5 -4 10 3 6 8 10 11 10 2 0 4 -4 4
-10z m200 -12 c0 -18 -2 -20 -9 -8 -6 8 -7 18 -5 22 9 14 14 9 14 -14z m40 -8
c0 -5 -5 -10 -11 -10 -5 0 -7 5 -4 10 3 6 8 10 11 10 2 0 4 -4 4 -10z m-632
-191 c-6 -4 -8 -11 -4 -17 3 -6 2 -13 -4 -17 -11 -7 -13 9 -3 43 4 17 8 20 14
11 4 -8 3 -16 -3 -20z m1072 -51 c0 -5 -9 -4 -20 2 -11 6 -20 12 -20 14 0 2 9
2 20 -1 11 -3 20 -9 20 -15z m-1075 -78 c3 -5 1 -10 -4 -10 -6 0 -11 5 -11 10
0 6 2 10 4 10 3 0 8 -4 11 -10z m-2613 -49 c31 -3 47 -160 23 -218 -14 -32
-35 -45 -35 -21 0 6 -3 8 -7 5 -7 -7 -32 36 -40 68 -2 11 -7 46 -10 78 -6 63
12 98 45 92 9 -2 20 -4 24 -4z m3778 -51 c0 -5 -10 -10 -22 -9 -22 0 -22 1 -3
9 11 5 21 9 23 9 1 1 2 -3 2 -9z m360 -109 c0 -61 -4 -112 -9 -115 -8 -6 -10
9 -10 104 0 78 4 120 12 120 4 0 7 -49 7 -109z m-1590 89 c12 -8 9 -10 -12
-10 -15 0 -30 5 -33 10 -8 13 25 13 45 0z m1520 -300 c26 -52 25 -58 -5 -30
-14 13 -25 34 -25 47 0 32 7 29 30 -17z m-414 -77 c9 -32 10 -52 2 -80 -14
-46 -14 -48 -4 -143 5 -51 15 -89 32 -117 41 -71 27 -103 -16 -35 -34 54 -69
79 -120 85 -25 3 -74 16 -110 30 -37 13 -79 22 -97 20 -51 -6 -41 21 22 63 51
34 60 45 56 67 -1 5 3 6 9 2 5 -3 10 -1 10 4 0 6 1 14 1 19 3 12 83 82 95 82
6 0 18 7 25 16 16 19 48 34 69 31 8 -1 20 -21 26 -44z m-2751 -50 c28 -5 95
-8 150 -8 62 1 116 -4 141 -12 81 -27 138 -110 137 -200 -1 -50 -42 -113 -90
-139 -40 -21 -43 -21 -58 -4 -12 14 -13 20 -4 26 8 4 10 3 5 -4 -4 -7 -5 -12
-2 -12 15 0 12 19 -6 34 -17 15 -20 16 -15 3 3 -9 2 -19 -4 -22 -5 -4 -9 -3
-8 2 6 35 -13 43 -42 17 -17 -16 -19 -15 -28 7 -12 32 -42 57 -63 54 -10 -2
-18 1 -18 6 0 5 -3 8 -7 7 -29 -8 -74 59 -64 96 4 17 -21 65 -38 70 -9 3 -38
8 -66 11 -91 10 -185 39 -185 57 0 21 167 28 265 11z m641 -96 c28 -30 44 -61
44 -89 0 -13 5 -29 11 -35 14 -14 22 -101 11 -117 -4 -6 -8 -42 -9 -81 0 -38
-3 -95 -5 -125 -3 -42 2 -66 18 -100 34 -70 76 -239 68 -275 -8 -36 -31 -65
-54 -65 -12 0 -17 10 -18 39 -2 21 -5 49 -8 62 -3 13 -8 40 -10 59 -8 53 -12
60 -31 57 -28 -4 -47 -19 -72 -55 -18 -26 -22 -44 -20 -85 2 -29 0 -62 -4 -74
-5 -12 -10 -30 -12 -40 -17 -73 -30 -109 -42 -116 -7 -4 -13 -25 -13 -47 0
-21 -4 -42 -10 -45 -14 -9 -13 -58 2 -73 20 -20 28 -14 28 19 0 20 4 29 13 27
7 -3 13 -28 15 -63 2 -47 -1 -64 -17 -86 -12 -16 -21 -35 -21 -42 0 -8 -7 -20
-15 -27 -17 -14 -26 0 -22 35 1 12 -4 20 -12 20 -10 0 -16 -15 -19 -52 -3 -48
-1 -54 30 -82 25 -24 30 -33 20 -39 -8 -5 -13 -13 -12 -18 1 -5 -4 -10 -11
-13 -6 -2 -9 1 -6 6 3 5 0 10 -7 10 -7 0 -12 -8 -11 -18 1 -22 15 -38 15 -19
0 7 2 11 5 8 9 -8 -6 -38 -16 -32 -5 3 -6 -2 -3 -11 12 -29 -53 -146 -85 -153
-7 -1 -10 2 -7 7 3 5 2 20 -2 32 l-9 23 -12 -21 c-6 -12 -12 -33 -13 -47 -1
-13 -5 -23 -8 -21 -4 2 -15 -10 -25 -28 -39 -67 -121 -167 -137 -167 -17 0 -7
58 15 91 27 40 91 153 88 157 -5 9 2 24 25 51 23 28 61 157 50 169 -6 5 -66
-56 -66 -66 0 -4 -9 -13 -21 -20 -19 -12 -20 -11 -14 29 9 58 18 78 58 131 20
25 33 49 30 52 -4 3 -1 6 5 6 7 0 11 3 10 8 -5 17 27 96 51 125 8 9 11 17 8
17 -4 0 7 25 23 55 17 31 34 84 40 122 11 66 10 69 -13 88 -28 23 -29 65 -3
94 9 10 16 20 16 24 0 8 76 93 129 145 43 42 76 106 64 125 -7 11 -6 218 1
342 5 86 4 92 -25 143 -17 30 -34 65 -40 79 -9 24 -8 25 18 18 15 -3 37 -16
49 -28z m1710 -142 c9 -19 31 -48 50 -65 19 -16 34 -34 34 -40 0 -9 13 -14 31
-12 3 1 12 -10 19 -23 7 -14 20 -25 28 -25 8 0 31 -18 50 -41 27 -31 40 -39
57 -35 14 4 28 -1 38 -12 17 -19 47 -101 53 -147 7 -44 -12 -10 -21 40 -11 61
-32 95 -59 95 -13 0 -44 16 -68 36 l-43 37 -110 -7 c-89 -5 -117 -4 -141 9
-31 15 -44 16 -119 12 -30 -1 -39 2 -37 12 2 11 0 12 -10 3 -14 -11 -64 -10
-76 3 -4 4 2 5 13 3 11 -1 20 2 20 9 0 15 15 30 15 15 0 -8 8 -8 31 0 20 7 27
13 19 18 -7 4 -9 16 -5 29 3 12 10 19 15 16 5 -3 14 1 22 8 7 7 21 16 31 20 9
3 17 14 17 23 0 12 7 15 25 12 14 -3 25 -2 25 2 0 6 55 34 77 39 1 1 10 -15
19 -34z m574 -145 c0 -4 -6 -12 -13 -18 -17 -14 -42 2 -34 22 4 10 -1 20 -12
26 -19 10 -33 44 -23 55 7 6 82 -73 82 -85z m-824 41 c-4 -5 0 -12 6 -14 8 -3
6 -6 -4 -6 -18 -1 -24 10 -11 22 9 10 15 8 9 -2z m-3849 -143 c-3 -7 -5 -2 -5
12 0 14 2 19 5 13 2 -7 2 -19 0 -25z m4057 -55 c62 -6 119 -26 159 -55 17 -13
56 -36 86 -53 30 -16 60 -39 68 -51 13 -20 12 -21 -37 -18 -41 2 -62 11 -115
48 -69 48 -81 53 -87 35 -4 -12 -58 9 -58 23 0 4 -4 8 -10 8 -5 0 -18 7 -27
16 -10 8 -31 27 -48 41 -29 24 -29 25 -5 19 14 -4 47 -10 74 -13z m-4004 -195
c0 -7 -4 -19 -9 -26 -6 -11 -9 -9 -14 7 -2 11 -2 22 1 25 10 10 22 6 22 -6z
m4332 -40 c-6 -6 -15 -8 -19 -4 -4 4 -1 11 7 16 19 12 27 3 12 -12z m-4365
-179 c2 -80 -1 -120 -10 -130 -6 -8 -11 -13 -10 -11 1 2 -5 19 -13 37 -8 19
-14 45 -14 58 0 14 -6 30 -14 36 -25 21 -24 48 1 91 16 26 31 40 41 38 15 -3
17 -20 19 -119z m2458 -102 c-2 -34 -13 -107 -24 -162 -15 -71 -20 -131 -19
-205 1 -58 -1 -115 -6 -126 -6 -17 -3 -22 13 -27 17 -4 21 -13 21 -46 0 -26 5
-41 13 -41 8 0 7 -4 -3 -10 -8 -5 -11 -10 -6 -10 5 0 4 -6 -2 -12 -5 -7 -9
-46 -8 -86 1 -59 -1 -69 -11 -56 -7 9 -14 22 -16 28 -8 20 -16 1 -18 -41 -2
-23 -7 -40 -11 -37 -4 3 -11 -2 -14 -10 -3 -9 -10 -16 -15 -16 -11 0 -12 54
-2 64 17 17 24 188 10 256 -23 115 -41 130 -51 43 -4 -31 -14 -65 -23 -75 -20
-22 -47 -24 -40 -3 4 8 2 17 -3 20 -6 3 0 19 12 35 13 19 23 49 26 85 5 58 17
70 31 33 7 -17 10 -19 14 -8 14 42 56 230 60 265 8 70 48 205 62 205 10 0 12
-16 10 -63z m-315 2 c0 -39 -40 -115 -70 -133 -18 -10 -30 -13 -30 -6 0 6 -5
8 -10 5 -23 -14 -1 33 53 113 29 45 57 55 57 21z m-132 -195 c2 -24 -2 -33
-21 -41 -21 -10 -54 -11 -64 -3 -11 9 -31 2 -46 -17 -25 -32 -56 -48 -53 -28
1 8 31 36 67 62 35 27 65 51 67 54 1 3 13 5 25 4 17 -1 23 -9 25 -31z m582
-96 c-11 -49 -35 -101 -53 -116 -14 -12 -15 -10 -11 14 7 38 32 95 51 116 21
24 22 23 13 -14z m495 -108 c3 -5 1 -10 -4 -10 -6 0 -11 5 -11 10 0 6 2 10 4
10 3 0 8 -4 11 -10z m-40 -84 c27 -11 32 -19 28 -35 -7 -27 -12 -27 -51 8 -48
44 -40 53 23 27z m-814 -138 c5 -53 -18 -129 -42 -143 -14 -9 -4 63 14 108 9
19 13 38 9 41 -3 3 0 6 6 6 7 0 12 -6 13 -12z m905 -76 c16 -38 5 -41 -33 -7
-23 20 -25 24 -10 25 11 0 15 5 11 11 -4 7 -2 10 6 7 6 -2 18 -18 26 -36z
m-959 -114 c-3 -7 -5 -2 -5 12 0 14 2 19 5 13 2 -7 2 -19 0 -25z m656 -25 c-8
-27 -18 -64 -22 -83 l-7 -35 -6 35 c-3 19 -2 40 2 45 4 6 13 27 19 48 7 20 16
37 21 37 4 0 1 -21 -7 -47z m182 -201 c-5 -5 -25 69 -24 88 0 8 7 -7 14 -35 8
-27 12 -51 10 -53z m-218 46 c-3 -8 -6 -5 -6 6 -1 11 2 17 5 13 3 -3 4 -12 1
-19z m163 -63 c0 -5 -5 -3 -10 5 -5 8 -10 20 -10 25 0 6 5 3 10 -5 5 -8 10
-19 10 -25z m79 -31 c6 -17 33 -52 59 -76 26 -24 46 -51 44 -60 -2 -11 8 -20
31 -27 18 -6 44 -21 56 -32 12 -11 34 -25 50 -32 15 -7 47 -27 70 -46 41 -33
41 -35 40 -95 -1 -45 7 -85 30 -152 30 -89 43 -167 21 -134 -8 13 -10 13 -10
-2 0 -9 5 -20 10 -23 15 -9 12 -27 -2 -19 -7 4 -6 -1 3 -12 20 -23 27 -130 8
-118 -8 5 -9 3 -4 -6 5 -8 7 -39 6 -69 -2 -45 4 -67 27 -112 18 -36 26 -62 21
-75 -3 -10 -4 -23 -2 -27 3 -5 6 -18 8 -30 2 -12 12 -49 24 -81 22 -62 27 -96
12 -96 -4 0 -46 38 -91 85 -54 54 -87 81 -91 73 -8 -12 -49 46 -49 70 0 21 9
14 81 -58 69 -68 94 -86 83 -55 -4 8 -1 22 6 30 10 13 10 19 -4 33 -9 10 -16
24 -16 30 0 7 -12 30 -27 51 -23 34 -34 40 -63 41 -46 0 -78 19 -35 20 l30 1
-23 19 c-21 18 -23 40 -3 40 5 0 24 7 44 15 l35 15 -24 50 c-13 27 -23 58 -21
69 1 11 -1 20 -5 20 -29 3 -37 -1 -43 -19 -8 -24 -48 -70 -61 -70 -5 0 -10 12
-10 28 -1 15 -7 41 -14 57 -7 17 -13 42 -14 56 0 14 -7 33 -15 42 -7 10 -10
17 -6 17 5 0 0 9 -9 19 -12 13 -14 21 -6 26 8 5 8 11 -1 21 -9 11 -7 14 15 14
31 0 34 14 6 33 -11 8 -17 17 -13 21 4 4 3 10 -2 14 -13 9 -75 98 -75 107 0 4
7 2 15 -5 15 -12 22 0 8 14 -11 11 -12 36 -2 36 6 0 7 6 3 13 -4 6 -3 8 1 4 5
-4 10 -13 11 -20 16 -94 30 -127 72 -174 15 -17 32 -39 38 -49 6 -11 22 -20
35 -22 23 -3 22 -2 -6 18 l-30 22 29 -7 29 -6 -31 28 c-38 33 -40 43 -9 44 14
0 4 8 -30 21 -29 11 -50 25 -47 29 3 5 8 7 12 5 4 -2 25 -7 47 -10 37 -5 39
-5 21 9 -13 10 -15 15 -6 15 18 0 -16 37 -42 46 -19 6 -20 23 -3 80 5 15 0 24
-17 32 l-23 13 24 -5 c19 -4 21 -3 10 7 -7 7 -18 19 -25 26 -9 12 -12 7 -12
-27 -1 -25 5 -48 14 -57 18 -17 11 -19 -16 -5 -10 5 -21 23 -25 40 -4 16 -10
30 -15 30 -5 0 -23 15 -41 34 -23 25 -40 34 -61 34 -30 -1 -34 -11 -18 -52 14
-39 2 -31 -14 9 -11 25 -21 35 -37 35 -19 0 -21 4 -15 33 4 17 10 75 13 128 6
95 6 96 28 85 12 -6 28 -25 34 -42z m1527 -41 c-4 -4 -11 -1 -16 7 -16 25 -11
35 7 17 9 -9 13 -20 9 -24z m-2544 10 c-6 -3 -9 -10 -6 -15 4 -7 2 -8 -5 -4
-9 6 -9 11 0 22 6 8 15 12 18 8 3 -4 0 -9 -7 -11z m2973 -33 c3 -5 1 -10 -4
-10 -6 0 -11 5 -11 10 0 6 2 10 4 10 3 0 8 -4 11 -10z m-1514 -43 c9 -18 21
-32 27 -32 5 0 14 -3 18 -7 4 -5 0 -8 -9 -8 -21 0 -31 -17 -16 -26 8 -4 9 -3
5 4 -4 7 -1 12 8 12 9 0 15 -5 14 -11 -3 -11 14 -23 46 -33 10 -4 16 -12 13
-20 -4 -9 5 -19 24 -27 22 -9 27 -14 17 -20 -9 -6 -7 -9 8 -9 33 0 39 -30 19
-102 -10 -38 15 -46 54 -19 16 12 31 21 33 21 2 0 5 -35 7 -77 2 -63 7 -82 23
-100 12 -13 19 -26 15 -29 -3 -3 3 -22 14 -41 11 -19 19 -43 18 -52 -2 -9 1
-27 5 -40 5 -15 4 -27 -4 -35 -10 -8 -11 -8 -5 3 5 9 1 19 -10 28 -13 9 -15
13 -5 13 21 0 -2 19 -31 26 -13 3 -30 6 -38 7 -20 3 -60 -81 -61 -125 0 -21
-5 -38 -11 -38 -7 0 -9 -15 -4 -42 4 -28 3 -38 -3 -29 -5 7 -12 9 -15 4 -7
-11 -2 -73 8 -98 l8 -20 -17 20 c-17 20 -17 20 -10 -5 3 -14 10 -29 13 -35 4
-5 6 -21 4 -35 -2 -14 -5 -32 -6 -41 -1 -13 -5 -14 -20 -5 -19 11 -19 25 -4
171 7 70 46 225 63 253 8 12 14 28 12 35 -1 6 5 26 15 43 l16 32 -29 4 c-16 2
-39 -1 -52 -8 -26 -15 -51 -18 -28 -4 12 7 10 9 -7 7 -12 0 -19 -5 -17 -9 3
-4 1 -8 -5 -8 -5 0 -13 5 -16 10 -10 15 -28 12 -22 -4 3 -8 -1 -17 -10 -20
-10 -4 -14 -2 -10 8 3 8 -1 20 -9 27 -12 10 -12 14 -2 21 10 6 10 10 -2 18
-12 8 -10 10 11 10 42 0 86 28 104 67 14 30 15 42 6 74 -6 21 -16 41 -22 45
-8 4 -8 0 0 -14 15 -29 14 -67 -3 -81 -40 -33 -149 -19 -161 20 -10 29 4 91
23 113 13 13 17 38 18 97 0 43 -3 79 -8 79 -4 0 -11 12 -14 28 -4 15 -11 33
-17 40 -7 9 -6 11 4 7 8 -3 21 -20 30 -38z m1574 -87 c3 -5 -1 -10 -9 -10 -8
0 -18 5 -21 10 -3 6 1 10 9 10 8 0 18 -4 21 -10z m-1976 -125 c-1 -30 -1 -29
-9 5 -4 19 -12 48 -19 63 -18 45 -11 46 10 2 10 -22 18 -53 18 -70z m-180 83
c0 -7 -4 -22 -9 -33 -7 -17 -9 -15 -9 13 -1 17 4 32 9 32 6 0 10 -6 9 -12z
m-29 -8 c0 -5 -9 -10 -20 -10 -11 0 -20 5 -20 10 0 6 9 10 20 10 11 0 20 -4
20 -10z m142 -52 c-9 -9 -15 -9 -24 0 -9 9 -7 12 12 12 19 0 21 -3 12 -12z
m83 -78 c-5 -8 16 -68 36 -103 13 -24 28 -107 19 -107 -4 0 -10 17 -14 38 -3
22 -17 65 -31 96 -26 58 -33 102 -15 91 6 -4 8 -10 5 -15z m-55 -15 c0 -8 -4
-15 -9 -15 -5 0 -14 7 -21 15 -10 13 -9 15 9 15 12 0 21 -6 21 -15z m205 -45
c3 -5 -1 -10 -9 -10 -8 0 -18 5 -21 10 -3 6 1 10 9 10 8 0 18 -4 21 -10z
m-173 -37 c-10 -4 -10 -8 0 -21 12 -15 11 -16 -4 -3 -10 7 -18 17 -18 22 0 5
8 9 18 8 11 0 12 -2 4 -6z m-2664 -58 c-3 -3 -9 2 -12 12 -6 14 -5 15 5 6 7
-7 10 -15 7 -18z m2688 -40 c-10 -8 -23 -12 -29 -8 -11 7 12 23 33 23 12 -1
11 -4 -4 -15z m24 -35 c9 -17 8 -20 -14 -20 -22 0 -26 8 -17 38 3 9 22 -2 31
-18z m50 -43 c0 -10 -4 -15 -10 -12 -5 3 -10 18 -10 33 0 21 2 24 10 12 5 -8
10 -23 10 -33z m-47 -13 c-4 -12 -34 -24 -61 -24 -9 0 -10 4 -1 18 13 21 70
27 62 6z m454 -49 c0 -11 -4 -12 -14 -4 -7 6 -13 15 -13 20 0 5 6 6 13 3 8 -3
14 -11 14 -19z m-450 -36 c-1 -20 -17 -27 -17 -8 0 6 -7 9 -15 5 -8 -3 -15 -1
-15 4 0 6 5 10 11 10 5 0 8 4 5 9 -4 5 3 7 13 4 12 -3 19 -13 18 -24z m1881 6
c7 -14 12 -31 12 -37 0 -7 10 -22 22 -35 18 -20 19 -23 5 -23 -9 0 -17 2 -17
4 0 2 -11 29 -25 60 -14 31 -21 56 -16 56 4 0 13 -11 19 -25z m-1228 -35 c0
-5 -2 -10 -4 -10 -3 0 -8 5 -11 10 -3 6 -1 10 4 10 6 0 11 -4 11 -10z m-185
-10 c8 -13 -15 -13 -35 0 -12 8 -11 10 7 10 12 0 25 -4 28 -10z m155 -16 c0
-2 -9 -4 -20 -4 -11 0 -20 4 -20 9 0 5 9 7 20 4 11 -3 20 -7 20 -9z m94 0 c9
-3 16 -10 16 -15 0 -5 -11 -4 -24 1 -13 5 -27 6 -32 2 -4 -4 -4 -1 0 6 8 13
17 15 40 6z m24 -75 c-3 -33 -6 -34 -30 -15 -18 14 -24 27 -10 25 17 -3 32 2
32 10 0 5 -10 7 -22 5 -21 -4 -21 -4 -3 5 28 12 36 5 33 -30z m1206 -41 c14
-36 23 -68 20 -70 -2 -3 2 -11 11 -18 8 -7 15 -22 15 -34 0 -15 -6 -10 -19 19
-33 70 -61 143 -61 161 0 26 7 14 34 -58z m-1188 -64 c-4 -16 -3 -23 3 -20 11
7 16 -9 25 -69 l6 -40 -17 33 c-9 17 -24 32 -32 32 -14 0 -14 2 -1 9 8 6 19 7
25 4 5 -4 2 3 -8 14 -9 11 -15 27 -12 36 4 10 0 17 -12 20 -14 4 -13 5 6 6 20
1 22 -2 17 -25z m1349 -34 c10 -11 16 -20 13 -20 -3 0 -13 9 -23 20 -10 11
-16 20 -13 20 3 0 13 -9 23 -20z m-1820 -50 c4 -6 -6 -10 -22 -9 -25 0 -26 1
-8 9 11 5 21 9 22 9 1 1 5 -3 8 -9z m1745 -77 c0 -7 -5 -13 -11 -13 -6 0 -9 7
-5 15 3 8 1 15 -4 15 -6 0 -10 10 -10 23 1 22 1 22 15 -3 8 -14 14 -31 15 -37z
m184 29 c3 -5 -1 -9 -9 -9 -8 0 -12 4 -9 9 3 4 7 8 9 8 2 0 6 -4 9 -8z m-4954
-42 c0 -19 -25 -34 -41 -24 -13 8 -11 21 7 38 18 19 34 13 34 -14z m4791 -42
c8 -16 8 -19 -2 -16 -6 2 -16 14 -20 27 -11 27 6 19 22 -11z m922 -3 c-3 -9
-8 -14 -10 -11 -3 3 -2 9 2 15 9 16 15 13 8 -4z m-2179 -22 c5 -13 4 -14 -9
-3 -11 9 -15 9 -15 1 0 -7 -4 -9 -10 -6 -16 10 -12 21 9 22 11 1 22 -5 25 -14z
m-205 -19 c2 -2 -14 -4 -37 -4 -23 0 -42 4 -42 9 0 8 70 4 79 -5z m1487 -29
c15 -15 10 -40 -5 -30 -10 5 -22 45 -14 45 2 0 11 -7 19 -15z m-1593 -20 c-7
-21 -13 -19 -13 6 0 11 4 18 10 14 5 -3 7 -12 3 -20z m1623 -72 c-4 -4 -11 -1
-16 7 -16 25 -11 35 7 17 9 -9 13 -20 9 -24z m-1605 -40 c9 -10 21 -32 27 -50
9 -26 8 -34 -6 -45 -13 -11 -14 -11 -7 1 6 10 4 12 -4 6 -9 -5 -7 -13 8 -29
12 -12 21 -27 21 -34 0 -6 5 -14 12 -18 6 -4 8 -3 4 4 -3 6 -2 13 2 16 5 3 7
17 4 32 -4 24 -3 25 17 13 23 -15 28 -29 10 -29 -8 0 -8 -4 1 -15 14 -16 21
-67 9 -59 -5 3 -9 13 -9 22 0 14 -2 15 -9 2 -6 -8 -7 -19 -5 -25 3 -5 0 -3 -8
6 -7 9 -17 16 -22 15 -5 -1 -10 6 -11 15 -2 8 -14 28 -29 44 l-26 28 4 -79 c3
-53 0 -87 -8 -103 -15 -27 -25 -12 -21 29 1 14 3 55 4 93 1 57 4 67 19 67 14
0 14 2 3 9 -10 6 -15 32 -16 82 -1 60 1 68 10 47 5 -15 17 -34 26 -45z m1790
34 c-10 -9 -11 -8 -5 6 3 10 9 15 12 12 3 -3 0 -11 -7 -18z m-1906 3 c3 -5 2
-10 -4 -10 -5 0 -13 5 -16 10 -3 6 -2 10 4 10 5 0 13 -4 16 -10z m185 -10 c6
-11 8 -20 6 -20 -3 0 -10 9 -16 20 -6 11 -8 20 -6 20 3 0 10 -9 16 -20z m213
-24 c-9 -5 -19 -4 -26 3 -8 8 -8 11 1 11 7 0 12 8 12 17 0 15 2 14 14 -3 13
-16 12 -20 -1 -28z m54 18 c-3 -3 -12 -4 -19 -1 -8 3 -5 6 6 6 11 1 17 -2 13
-5z m1289 -49 c4 -14 4 -29 0 -32 -3 -4 -6 3 -6 13 0 11 -5 25 -12 32 -9 9 -9
12 0 12 6 0 14 -11 18 -25z m20 -82 c3 -16 7 -33 9 -40 2 -7 0 -15 -5 -18 -9
-5 -15 16 -11 38 1 4 -3 17 -9 27 -7 13 -7 20 -1 20 6 0 13 -12 17 -27z
m-1291 -53 c-3 -5 -12 -7 -20 -3 -21 7 -19 13 6 13 11 0 18 -4 14 -10z m-48
-6 c-3 -3 -12 -4 -19 -1 -8 3 -5 6 6 6 11 1 17 -2 13 -5z m1367 -50 c8 -21 8
-24 -3 -24 -5 0 -11 9 -14 20 -6 24 8 27 17 4z m-1304 -28 c0 -11 -19 -15 -25
-6 -3 5 1 10 9 10 9 0 16 -2 16 -4z m-63 -12 c-3 -3 -12 -4 -19 -1 -8 3 -5 6
6 6 11 1 17 -2 13 -5z m1483 -33 c0 -4 -11 -8 -25 -9 -23 -2 -32 7 -19 20 7 7
44 -2 44 -11z m-1388 -35 c10 1 20 -2 24 -7 3 -5 -4 -9 -15 -9 -11 0 -23 -5
-26 -10 -4 -6 -12 -7 -23 -1 -10 5 -26 5 -41 -1 -18 -6 -23 -6 -16 1 6 6 21
12 35 14 13 2 26 10 28 17 3 7 7 8 11 3 3 -6 14 -9 23 -7z"/>
<path d="M1260 5186 c0 -2 8 -10 18 -17 15 -13 16 -12 3 4 -13 16 -21 21 -21
13z"/>
<path d="M1445 5030 c-3 -6 1 -7 9 -4 18 7 21 14 7 14 -6 0 -13 -4 -16 -10z"/>
<path d="M1710 5011 c0 -6 4 -13 10 -16 6 -3 7 1 4 9 -7 18 -14 21 -14 7z"/>
<path d="M1777 4983 c-3 -5 -2 -15 2 -22 7 -10 10 -10 16 -1 4 6 3 16 -3 22
-5 5 -12 6 -15 1z"/>
<path d="M2361 3634 c0 -11 3 -14 6 -6 3 7 2 16 -1 19 -3 4 -6 -2 -5 -13z"/>
<path d="M5031 3614 c0 -11 3 -14 6 -6 3 7 2 16 -1 19 -3 4 -6 -2 -5 -13z"/>
<path d="M4528 3343 c7 -3 16 -2 19 1 4 3 -2 6 -13 5 -11 0 -14 -3 -6 -6z"/>
<path d="M3740 1173 c0 -14 48 -68 54 -62 3 3 -3 15 -14 27 -11 12 -20 26 -20
32 0 5 -4 10 -10 10 -5 0 -10 -3 -10 -7z"/>
<path d="M3790 1078 c7 -13 18 -25 26 -25 20 0 13 17 -15 35 -21 15 -22 14
-11 -10z"/>
<path d="M3945 550 c4 -6 11 -8 16 -5 14 9 11 15 -7 15 -8 0 -12 -5 -9 -10z"/>
<path d="M3934 1442 c-6 -4 -11 -22 -11 -39 0 -29 3 -33 29 -33 43 0 43 0 42
16 -1 8 2 14 7 14 16 0 10 38 -7 44 -21 8 -47 7 -60 -2z m36 -42 c0 -5 -5 -10
-11 -10 -5 0 -7 5 -4 10 3 6 8 10 11 10 2 0 4 -4 4 -10z"/>
<path d="M4075 340 c3 -5 8 -10 11 -10 2 0 4 5 4 10 0 6 -5 10 -11 10 -5 0 -7
-4 -4 -10z"/>
<path d="M6186 5851 c3 -7 0 -17 -7 -22 -12 -7 -11 -9 1 -9 12 0 12 -2 2 -9
-11 -6 -10 -10 4 -15 10 -4 15 -4 11 0 -4 4 -2 12 3 19 6 8 5 18 -6 31 -8 10
-12 13 -8 5z"/>
<path d="M6155 5839 c-4 -6 -5 -12 -2 -15 2 -3 7 2 10 11 7 17 1 20 -8 4z"/>
<path d="M6102 5780 c0 -14 2 -19 5 -12 2 6 2 18 0 25 -3 6 -5 1 -5 -13z"/>
<path d="M4640 5695 c0 -2 10 -10 23 -16 20 -11 21 -11 8 4 -13 16 -31 23 -31
12z"/>
<path d="M7855 5013 c-664 -453 -1109 -750 -1134 -758 -13 -4 -42 -21 -65 -37
-22 -17 -104 -71 -181 -122 -358 -233 -604 -397 -610 -406 -4 -6 -25 -20 -48
-31 -41 -22 -371 -232 -417 -267 -14 -10 -65 -43 -115 -73 -49 -30 -97 -63
-106 -74 -9 -11 -119 -87 -243 -170 -125 -82 -223 -151 -219 -152 4 -1 114
-14 243 -28 129 -14 246 -30 260 -35 46 -16 112 -21 126 -9 17 14 51 3 57 -19
4 -14 6 -13 12 6 4 12 11 22 16 22 6 0 32 23 59 51 27 28 54 48 60 44 5 -3 10
-1 10 4 0 6 6 11 14 11 8 0 52 22 98 48 46 26 97 54 115 61 18 7 38 20 44 28
7 8 37 27 68 42 31 16 83 45 116 64 33 20 87 50 120 67 33 18 74 47 90 66 17
18 42 36 58 38 29 5 69 30 120 77 17 16 41 32 52 36 11 3 37 17 57 29 21 13
43 24 49 24 6 0 31 18 56 40 25 22 54 40 64 40 10 0 28 13 40 30 12 16 26 27
31 24 5 -3 7 -2 6 3 -2 4 0 8 3 8 4 0 16 9 28 19 16 14 21 16 21 5 0 -8 3 -10
8 -4 4 6 14 11 22 13 8 2 39 22 69 45 29 23 60 42 69 44 18 2 44 32 37 43 -2
4 2 7 10 7 11 0 12 -4 3 -14 -8 -11 -7 -12 6 -7 9 3 16 10 16 15 0 5 7 9 15 9
9 0 18 7 21 15 4 8 10 15 16 15 5 0 6 -6 3 -12 -4 -7 6 1 20 17 15 17 24 24
21 18 -13 -23 9 -14 82 37 40 27 72 47 72 44 0 -3 12 3 28 14 15 10 41 26 57
34 109 56 457 258 537 312 25 17 54 36 62 41 15 9 16 47 14 357 l-3 347 -140
-96z m-855 -1173 c0 -5 -5 -10 -11 -10 -5 0 -7 5 -4 10 3 6 8 10 11 10 2 0 4
-4 4 -10z"/>
<path d="M4412 4788 c-14 -14 -16 -28 -3 -28 5 0 11 9 14 20 6 23 5 24 -11 8z"/>
<path d="M2640 4741 c0 -6 4 -13 10 -16 6 -3 7 1 4 9 -7 18 -14 21 -14 7z"/>
<path d="M3620 4216 c0 -29 20 -66 35 -66 27 0 29 29 5 56 -27 27 -40 31 -40
10z"/>
<path d="M3709 4135 c-1 -3 -2 -8 -3 -12 -3 -19 -19 -33 -37 -33 -22 0 -25
-10 -7 -28 14 -14 48 2 48 24 0 8 6 14 13 13 32 -4 38 1 27 21 -10 18 -38 28
-41 15z"/>
<path d="M3646 4023 c50 -91 55 -97 65 -81 13 20 10 68 -4 68 -16 0 -77 55
-77 69 0 6 -5 11 -10 11 -6 0 6 -30 26 -67z"/>
<path d="M3411 3013 c12 -32 26 -69 31 -82 8 -21 11 -23 23 -10 8 8 17 28 21
45 5 27 1 34 -33 61 -63 49 -65 49 -42 -14z"/>
<path d="M3381 2949 c-2 -46 1 -60 11 -57 16 6 22 40 13 84 -10 53 -22 40 -24
-27z"/>
<path d="M3480 2826 c0 -2 7 -6 15 -10 8 -3 15 -1 15 4 0 6 -7 10 -15 10 -8 0
-15 -2 -15 -4z"/>
<path d="M3481 2795 c2 -11 12 -26 22 -33 9 -7 15 -18 12 -23 -3 -5 1 -6 9 -3
25 10 20 23 -23 59 -23 20 -23 20 -20 0z"/>
<path d="M3550 2730 c0 -5 5 -10 10 -10 6 0 10 5 10 10 0 6 -4 10 -10 10 -5 0
-10 -4 -10 -10z"/>
<path d="M6849 2643 c-12 -15 -12 -16 2 -11 9 4 22 1 29 -5 10 -10 10 -7 1 11
-14 26 -15 27 -32 5z"/>
<path d="M6934 2625 c-24 -18 -38 -19 -28 -2 5 9 4 9 -6 0 -11 -10 -17 -10
-29 0 -12 10 -14 9 -8 -7 6 -16 5 -17 -8 -6 -13 11 -14 10 -10 -2 4 -9 -1 -23
-10 -32 -9 -9 -12 -16 -6 -16 5 0 13 5 16 10 4 6 10 8 15 5 12 -8 70 22 70 36
0 6 3 8 8 5 4 -2 16 2 27 10 14 11 15 14 4 14 -8 0 -24 -7 -35 -15z"/>
<path d="M6780 2552 c-8 -3 -26 -14 -40 -25 -20 -16 -21 -19 -5 -13 11 4 24 8
30 9 12 2 39 27 34 31 -2 2 -11 1 -19 -2z"/>
<path d="M6657 2503 c-12 -11 -8 -23 8 -23 8 0 15 7 15 15 0 16 -12 20 -23 8z"/>
<path d="M6475 2470 c5 -9 1 -11 -16 -6 -13 3 -18 3 -11 0 6 -3 9 -11 6 -16
-4 -7 -2 -8 4 -4 24 15 11 -2 -14 -19 -15 -9 -24 -12 -20 -7 3 6 2 13 -3 16
-5 4 -8 -5 -7 -19 2 -13 0 -22 -5 -19 -10 6 -33 -35 -25 -44 3 -3 6 -1 6 4 0
10 58 37 77 37 4 0 14 7 21 16 10 12 12 12 6 1 -7 -13 -5 -13 9 -1 21 17 22
27 1 35 -10 4 -13 2 -8 -6 5 -7 3 -8 -5 -4 -7 5 -10 14 -7 22 3 7 0 16 -6 20
-7 5 -8 2 -3 -6z"/>
<path d="M5255 2389 c-11 -17 0 -20 21 -4 17 13 17 14 2 15 -9 0 -20 -5 -23
-11z"/>
<path d="M3833 2283 c9 -9 19 -14 23 -11 10 10 -6 28 -24 28 -15 0 -15 -1 1
-17z"/>
<path d="M5851 2153 c-1 -17 16 -25 25 -12 4 7 3 9 -4 5 -5 -3 -13 0 -15 6 -4
9 -6 10 -6 1z"/>
<path d="M3610 2100 c0 -12 40 -33 48 -25 4 4 -2 13 -12 21 -23 16 -36 18 -36
4z"/>
<path d="M3585 1970 c10 -11 25 -20 34 -20 12 0 9 6 -9 20 -33 26 -48 26 -25
0z"/>
<path d="M612 1954 c-14 -16 -5 -18 17 -5 7 5 9 11 5 14 -5 3 -15 -1 -22 -9z"/>
<path d="M3570 1934 c0 -6 7 -19 15 -30 8 -10 14 -14 14 -9 0 6 -6 19 -14 29
-8 11 -15 15 -15 10z"/>
<path d="M3615 1930 c3 -5 13 -10 21 -10 8 0 12 5 9 10 -3 6 -13 10 -21 10 -8
0 -12 -4 -9 -10z"/>
<path d="M5340 1920 c-23 -7 -23 -8 -3 -9 12 -1 25 4 28 9 3 6 5 10 3 9 -2 -1
-14 -5 -28 -9z"/>
<path d="M3640 1885 c7 -9 15 -13 17 -11 7 7 -7 26 -19 26 -6 0 -6 -6 2 -15z"/>
<path d="M3650 1852 c0 -14 31 -52 52 -63 20 -11 20 -11 2 23 -19 33 -33 48
-46 48 -5 0 -8 -3 -8 -8z"/>
<path d="M7973 1848 c-29 -14 -28 -16 2 -53 l24 -30 1 48 c0 26 -1 47 -2 46
-2 0 -13 -5 -25 -11z"/>
<path d="M3755 1790 c3 -5 11 -10 16 -10 6 0 7 5 4 10 -3 6 -11 10 -16 10 -6
0 -7 -4 -4 -10z"/>
<path d="M3730 1732 c0 -11 6 -24 13 -30 10 -8 13 -6 13 7 0 10 -6 23 -13 30
-10 9 -13 8 -13 -7z"/>
<path d="M3770 1701 c0 -11 4 -22 9 -25 4 -3 6 6 3 19 -5 30 -12 33 -12 6z"/>
<path d="M635 1700 c-4 -6 -11 -7 -17 -4 -7 4 -8 2 -4 -4 7 -12 36 -5 36 9 0
12 -7 11 -15 -1z"/>
<path d="M7978 1669 c-23 -24 -23 -29 2 -29 15 0 20 7 20 25 0 29 0 29 -22 4z"/>
<path d="M5190 1593 c0 -6 8 -17 18 -24 16 -13 16 -13 2 6 -8 11 -16 22 -17
24 -2 2 -3 0 -3 -6z"/>
<path d="M5246 1495 c4 -9 16 -21 28 -27 19 -10 19 -9 -3 16 -28 30 -33 32
-25 11z"/>
<path d="M610 1460 c-8 -5 -27 -10 -41 -10 -15 0 -29 -7 -33 -15 -3 -8 -3 -15
0 -15 17 0 104 36 104 42 0 11 -12 10 -30 -2z"/>
<path d="M439 1414 c-12 -14 -11 -16 5 -13 11 2 21 10 24 17 5 17 -13 15 -29
-4z"/>
<path d="M5321 1370 c12 -22 24 -38 26 -36 4 4 -37 76 -44 76 -2 0 6 -18 18
-40z"/>
<path d="M556 1348 c-3 -13 -6 -37 -6 -55 0 -17 -7 -39 -16 -48 -13 -13 -17
-41 -20 -133 -1 -65 -3 -122 -4 -127 -6 -27 2 -55 14 -55 22 0 23 -14 9 -118
-7 -54 -15 -117 -18 -142 -3 -24 -13 -53 -23 -64 -9 -11 -12 -17 -7 -14 6 4
10 -6 10 -22 1 -17 -3 -26 -10 -22 -5 3 -4 -2 4 -11 8 -11 9 -17 3 -17 -6 0
-9 -8 -5 -18 5 -14 3 -13 -10 3 -21 25 -21 44 -2 51 8 4 12 10 9 16 -3 5 -13
4 -22 -4 -14 -10 -15 -10 -4 2 14 16 16 30 3 30 -8 0 -18 -23 -26 -60 -2 -8
-7 -28 -11 -45 -4 -16 -7 -46 -7 -66 -1 -25 -5 -35 -13 -32 -8 3 -10 15 -7 31
3 15 6 34 7 42 0 8 6 18 11 22 6 5 5 8 -3 8 -14 0 -13 88 4 253 7 67 4 73 -28
68 -30 -4 -251 -51 -254 -53 -6 -6 -26 -270 -28 -359 -1 -48 -6 -92 -13 -100
-6 -8 -14 -45 -18 -84 -3 -38 -12 -92 -20 -120 -7 -27 -16 -62 -19 -77 l-6
-27 240 0 240 0 1 22 c0 26 4 65 24 242 22 192 43 400 50 485 4 41 15 131 25
200 17 114 31 271 34 375 1 40 1 40 -40 43 -36 3 -42 0 -48 -20z m-339 -870
c-10 -104 -19 -147 -33 -159 -19 -15 -44 -4 -40 18 2 10 7 37 11 60 4 24 11
45 16 49 5 3 7 17 4 32 -3 16 2 33 12 44 28 32 36 21 30 -44z m259 -45 c-1
-27 -6 -48 -13 -50 -7 -3 -13 0 -13 7 0 6 6 8 13 4 10 -6 10 -4 0 7 -15 15
-18 33 -5 25 5 -3 8 5 7 17 -2 20 2 37 9 37 2 0 3 -21 2 -47z m-73 -68 c-3 -9
-8 -14 -10 -11 -3 3 -2 9 2 15 9 16 15 13 8 -4z m-214 -89 c9 -10 10 -25 3
-48 -5 -18 -7 -39 -4 -47 2 -8 1 -11 -4 -8 -5 3 -8 -11 -8 -31 1 -21 -3 -45
-8 -55 -8 -15 -11 -16 -23 -3 -15 15 -19 136 -4 136 4 0 6 8 5 18 -3 17 14 52
25 52 4 0 12 -6 18 -14z m-43 -229 c1 -9 -2 -15 -7 -11 -5 3 -7 9 -4 14 3 4 0
11 -5 13 -6 3 -5 4 1 3 7 -1 13 -10 15 -19z"/>
<path d="M5350 1310 c0 -5 5 -10 11 -10 5 0 7 5 4 10 -3 6 -8 10 -11 10 -2 0
-4 -4 -4 -10z"/>
<path d="M5590 1291 c0 -8 41 -23 47 -17 2 1 -8 8 -22 14 -14 6 -25 8 -25 3z"/>
<path d="M5655 1260 c3 -5 11 -10 16 -10 6 0 7 5 4 10 -3 6 -11 10 -16 10 -6
0 -7 -4 -4 -10z"/>
<path d="M446 1206 c-4 -19 -13 -39 -21 -46 -9 -8 -11 -19 -6 -33 10 -26 6
-56 -7 -69 -5 -5 -6 -24 -2 -43 4 -19 3 -38 -2 -43 -6 -6 -6 -12 1 -17 6 -3
13 0 15 7 14 46 26 115 32 191 7 88 2 116 -10 53z"/>
<path d="M1426 1225 c-41 -14 -62 -35 -45 -46 6 -3 10 -9 10 -13 -3 -19 0 -27
8 -22 5 3 14 -1 21 -9 7 -8 18 -15 25 -15 8 0 12 -15 12 -42 l-1 -43 54 0 c29
0 59 5 66 10 15 11 8 55 -7 55 -19 0 -89 83 -89 106 0 31 -9 34 -54 19z"/>
<path d="M5405 1200 c3 -5 8 -10 11 -10 2 0 4 5 4 10 0 6 -5 10 -11 10 -5 0
-7 -4 -4 -10z"/>
<path d="M5629 1107 c7 -9 10 -17 5 -17 -5 -1 1 -9 13 -19 12 -10 20 -21 17
-23 -2 -3 2 -11 11 -18 9 -7 18 -10 21 -7 10 10 -25 64 -53 82 -24 16 -26 16
-14 2z"/>
<path d="M5713 986 c4 -10 7 -21 7 -26 0 -4 7 -10 15 -14 9 -3 15 0 15 10 0 8
-4 12 -10 9 -5 -3 -10 1 -10 9 0 8 -5 18 -12 22 -8 5 -9 2 -5 -10z"/>
<path d="M50 571 c-5 -11 -10 -37 -10 -58 0 -21 -7 -81 -16 -133 -17 -107 -30
-392 -16 -372 4 7 9 35 11 62 1 27 4 59 7 72 3 13 12 93 20 178 8 85 17 181
20 213 7 59 2 71 -16 38z"/>
<path d="M6000 510 c0 -5 5 -10 11 -10 5 0 7 5 4 10 -3 6 -8 10 -11 10 -2 0
-4 -4 -4 -10z"/>
<path d="M6010 481 c0 -5 5 -13 10 -16 6 -3 10 -2 10 4 0 5 -4 13 -10 16 -5 3
-10 2 -10 -4z"/>
<path d="M1415 452 c-2 -3 -26 -6 -52 -9 -77 -6 -70 -19 9 -17 145 3 150 4
146 17 -4 11 -92 19 -103 9z"/>
<path d="M6037 439 c12 -12 55 -20 48 -10 -2 5 -16 11 -31 14 -15 2 -22 1 -17
-4z"/>
<path d="M6085 360 c3 -5 11 -10 16 -10 6 0 7 5 4 10 -3 6 -11 10 -16 10 -6 0
-7 -4 -4 -10z"/>
<path d="M6054 317 c1 -29 12 -57 34 -89 18 -26 32 -49 32 -52 0 -3 -12 -6
-27 -6 -26 -1 -27 -2 -10 -15 11 -7 25 -11 32 -9 7 3 16 -4 20 -15 3 -12 14
-21 23 -21 13 0 13 2 -3 14 -18 13 -18 14 3 20 13 4 22 16 22 27 0 17 -3 18
-20 9 -21 -11 -25 -4 -14 24 3 9 10 13 15 10 13 -8 11 10 -4 31 -10 12 -16 14
-21 7 -12 -20 -26 -13 -26 13 0 14 -6 28 -14 31 -8 3 -18 19 -21 35 -10 44
-24 35 -21 -14z"/>
<path d="M6243 155 c0 -10 4 -12 12 -5 7 5 16 6 20 2 5 -4 5 -1 1 6 -10 17
-33 15 -33 -3z"/>
<path d="M1635 142 c-3 -3 -5 -9 -5 -14 0 -10 59 -7 66 3 4 8 -54 18 -61 11z"/>
<path d="M1978 144 c-4 -3 -34 -5 -68 -5 -34 0 -60 -2 -57 -5 11 -11 255 -19
265 -9 2 2 1 8 -3 14 -6 11 -127 16 -137 5z"/>
<path d="M1728 133 c7 -3 16 -2 19 1 4 3 -2 6 -13 5 -11 0 -14 -3 -6 -6z"/>
<path d="M1760 130 c0 -12 8 -12 35 0 18 8 17 9 -7 9 -16 1 -28 -3 -28 -9z"/>
<path d="M6150 90 c0 -6 7 -10 15 -10 8 0 15 2 15 4 0 2 -7 6 -15 10 -8 3 -15
1 -15 -4z"/>
<path d="M6174 23 c11 -12 56 -14 56 -3 0 5 -14 10 -32 10 -17 0 -28 -3 -24
-7z"/>
</g>
</svg>
