<?xml version="1.0" standalone="no"?>
<!DOCTYPE svg PUBLIC "-//W3C//DTD SVG 20010904//EN"
 "http://www.w3.org/TR/2001/REC-SVG-20010904/DTD/svg10.dtd">
<svg version="1.0" xmlns="http://www.w3.org/2000/svg"
 width="480.000000pt" height="320.000000pt" viewBox="0 0 480.000000 320.000000"
 preserveAspectRatio="xMidYMid meet">

<g transform="translate(0.000000,320.000000) scale(0.100000,-0.100000)"
fill="#000000" stroke="none">
<path d="M0 3044 l0 -155 30 4 c68 11 192 61 271 110 80 48 204 151 222 183 7
12 -32 14 -258 14 l-265 0 0 -156z"/>
<path d="M521 3146 c-43 -57 -89 -97 -163 -140 -51 -30 -56 -37 -34 -55 15
-13 167 0 227 20 91 30 182 85 259 155 l80 74 -165 0 -164 0 -40 -54z"/>
<path d="M892 3168 c-11 -18 -22 -45 -25 -59 -4 -14 -17 -37 -31 -52 -13 -14
-27 -40 -31 -57 -4 -17 -13 -34 -21 -37 -8 -3 -14 -10 -14 -17 0 -6 -62 -72
-138 -146 -105 -104 -152 -143 -203 -169 -37 -18 -75 -31 -85 -29 -29 5 -61
73 -80 172 -9 50 -19 84 -21 76 -3 -8 -7 -22 -10 -30 -3 -8 -7 -19 -7 -25 -3
-24 -18 -55 -27 -55 -6 0 -8 -4 -4 -9 3 -5 -15 -29 -40 -53 -84 -78 -124 -95
-144 -60 -7 12 -10 -110 -11 -395 0 -227 4 -413 8 -413 5 0 42 11 82 25 98 33
118 33 131 -4 17 -48 55 -55 158 -29 47 11 87 22 89 24 2 1 -4 17 -13 36 -17
33 -17 33 31 -12 61 -56 65 -63 54 -74 -6 -6 -15 -4 -25 4 -20 16 -20 -1 -1
-39 25 -47 35 -51 111 -40 39 5 98 18 132 28 68 21 83 15 83 -30 0 -44 29
-102 66 -135 36 -30 36 -31 23 -72 -12 -41 -24 -53 -31 -31 -5 16 -35 0 -41
-22 -3 -10 -11 -19 -18 -19 -10 0 -10 3 -1 12 21 21 13 26 -28 18 -52 -10 -59
-17 -24 -26 28 -7 28 -7 5 -16 -13 -4 -51 -11 -85 -14 -70 -7 -74 -9 -59 -32
15 -23 108 -20 207 7 42 12 82 21 89 21 13 0 40 -66 52 -129 9 -44 77 -117
122 -132 23 -7 62 -9 110 -5 l74 7 21 -50 c21 -49 72 -91 112 -91 9 0 16 -4
16 -10 0 -5 19 -24 43 -41 l42 -31 103 6 c153 9 369 59 524 121 12 5 18 -1 23
-27 17 -84 41 -141 68 -164 49 -41 128 -58 269 -59 69 0 129 3 133 6 3 4 -4
35 -16 70 -25 75 -31 153 -13 177 12 16 15 15 41 -9 55 -52 57 -52 212 -25 51
9 96 23 113 36 71 52 103 70 125 70 22 0 24 -3 19 -27 -9 -39 -79 -100 -153
-135 -54 -26 -78 -30 -176 -35 l-115 -6 -5 -48 c-8 -62 8 -158 28 -178 13 -14
56 -16 278 -18 288 -3 404 10 456 48 25 18 32 19 52 8 26 -14 56 -13 104 2 17
5 65 13 107 19 82 10 116 27 196 94 69 57 142 43 109 -21 -21 -40 -128 -130
-184 -155 -67 -30 -194 -31 -246 -3 -21 11 -35 25 -32 32 2 7 1 13 -4 13 -8 0
-20 -25 -34 -71 -3 -10 -21 -18 -47 -22 -36 -5 -126 -36 -235 -83 -68 -29
-209 -48 -347 -46 -153 1 -158 -2 -117 -59 38 -54 90 -69 244 -70 75 0 104 -5
130 -19 33 -18 33 -18 53 4 16 19 33 24 108 30 100 8 239 33 266 47 12 6 32 3
66 -10 59 -24 115 -31 332 -46 116 -8 210 -9 302 -2 80 6 118 1 118 -15 0 -5
-5 -6 -11 -2 -7 4 -7 -2 1 -17 7 -13 9 -21 5 -17 -4 4 -17 -2 -28 -13 -25 -23
-80 -40 -326 -99 -162 -40 -181 -42 -273 -37 -106 6 -118 -1 -75 -40 38 -35
59 -41 157 -47 121 -8 499 -8 511 0 5 3 62 17 127 31 64 14 133 28 152 33 19
4 59 13 89 19 78 16 85 24 76 91 -4 30 -7 73 -7 95 0 22 -5 43 -11 47 -17 11
-26 107 -10 119 7 7 13 20 13 30 0 10 4 21 10 24 6 4 10 199 10 522 l0 517
-24 40 c-35 61 -40 98 -21 157 10 28 24 63 31 78 11 21 14 118 14 507 l0 481
-75 -73 c-61 -61 -93 -83 -180 -125 -91 -43 -109 -49 -123 -37 -8 7 -13 8 -9
2 9 -16 -65 -25 -75 -10 -5 7 -8 4 -8 -6 0 -21 -39 -33 -76 -24 -22 6 -24 9
-13 22 9 11 14 12 19 3 6 -8 9 -8 11 0 4 10 31 16 112 24 9 1 17 4 17 8 0 4
28 21 63 38 64 32 92 49 113 66 6 6 36 30 66 55 30 24 78 73 106 108 l52 64 0
114 0 114 -288 0 -287 0 -49 -97 c-73 -144 -151 -256 -241 -346 -44 -44 -79
-84 -77 -89 3 -13 -32 -9 -72 7 -42 18 -42 21 26 102 89 109 168 223 185 269
6 16 15 57 20 92 l9 62 -52 0 -52 0 -54 -73 c-71 -93 -186 -205 -264 -255 -51
-33 -74 -57 -74 -77 0 -2 14 -6 30 -10 17 -4 42 -17 56 -30 13 -12 38 -28 54
-35 33 -13 41 -30 13 -25 -72 14 -225 27 -248 21 l-27 -7 59 -62 c82 -85 138
-165 240 -336 47 -80 104 -163 126 -184 34 -33 44 -38 71 -33 21 4 56 -2 102
-18 38 -13 90 -27 116 -31 46 -7 58 -25 17 -25 -11 0 -19 -7 -19 -17 0 -15 -2
-16 -10 -3 -9 14 -11 13 -14 -10 -2 -19 -42 -38 -76 -35 -35 3 -85 -28 -75
-46 4 -6 -26 -33 -74 -66 -2 -1 -4 -16 -3 -33 0 -16 -4 -32 -9 -35 -5 -4 -9
-1 -9 6 0 7 -3 9 -7 6 -3 -4 3 -16 15 -27 12 -12 22 -17 22 -13 0 4 5 2 12 -5
7 -7 20 -12 31 -12 11 0 15 -4 11 -11 -4 -8 0 -9 15 -4 14 4 23 2 27 -8 5 -13
-7 -43 -71 -182 -13 -27 -30 -72 -39 -100 -9 -27 -32 -82 -51 -122 -19 -39
-35 -77 -35 -83 0 -23 -44 -87 -77 -110 -19 -14 -38 -34 -43 -46 -10 -26 -85
-62 -144 -70 -72 -10 -146 42 -146 102 0 10 -14 32 -31 50 l-31 32 11 73 c6
41 10 97 9 125 -1 38 5 61 22 89 22 35 22 39 7 65 -19 31 -23 95 -7 105 16 10
12 105 -5 111 -29 12 -53 68 -58 139 -3 39 -10 83 -16 98 -6 16 -11 46 -11 68
0 32 -8 50 -36 85 -20 24 -40 42 -44 39 -5 -3 -20 -1 -34 5 -51 19 -28 -37 47
-114 26 -27 47 -51 47 -55 0 -3 -30 -35 -67 -71 -56 -55 -75 -83 -123 -185
-32 -66 -61 -131 -65 -145 -9 -30 -39 -101 -67 -155 -44 -87 -171 -175 -253
-175 -58 0 -72 10 -103 73 -37 75 -48 127 -32 157 25 47 6 51 -77 17 -97 -40
-103 -44 -97 -62 4 -10 -4 -18 -22 -25 -16 -5 -37 -15 -46 -20 -11 -6 -18 -6
-18 -1 0 5 9 13 20 16 18 6 29 25 14 25 -3 0 -39 -23 -81 -51 -41 -27 -82 -49
-91 -47 -16 3 -107 217 -118 278 -15 87 -24 109 -42 103 -9 -3 -24 -12 -32
-19 -14 -12 -149 -89 -213 -121 -36 -19 -84 -9 -93 20 -3 12 -24 70 -45 129
-39 108 -52 169 -26 118 29 -54 70 -109 78 -104 15 9 10 29 -10 41 -11 7 -38
39 -59 70 -43 64 -51 99 -57 251 -2 50 -5 95 -8 99 -11 19 -17 77 -22 226 -7
189 7 323 36 350 10 10 31 41 45 70 15 29 34 63 44 77 9 14 37 63 60 110 24
47 52 97 62 113 l19 27 -420 0 -419 0 -20 -32z m-682 -611 c0 -15 -68 -54 -90
-52 -8 1 -21 3 -27 3 -25 3 -14 40 15 50 41 15 102 15 102 -1z m239 -36 c12
-8 12 -12 2 -25 -24 -29 -60 -13 -47 19 6 17 24 19 45 6z m306 -101 c0 -100
-6 -104 -25 -15 -6 33 -14 70 -17 82 -4 15 0 22 14 25 10 2 20 3 23 1 2 -2 4
-44 5 -93z m597 61 c-14 -10 -21 -23 -17 -32 6 -17 -21 -46 -32 -35 -3 3 -1
17 5 31 7 15 8 25 2 25 -23 0 -7 20 23 28 41 11 48 5 19 -17z m-347 -80 c3 -5
1 -12 -5 -16 -5 -3 -10 1 -10 9 0 18 6 21 15 7z m-821 -22 c10 -9 -18 -22 -69
-33 -41 -9 -75 14 -56 37 10 12 25 15 64 10 29 -3 56 -9 61 -14z m276 -20 c19
-5 45 -12 58 -13 33 -5 40 -16 9 -16 -17 0 -27 -5 -27 -15 0 -8 -6 -15 -12
-15 -7 0 -29 -3 -50 -6 -31 -6 -38 -3 -53 20 -33 49 -1 69 75 45z m537 -21
c-3 -8 -6 -5 -6 6 -1 11 2 17 5 13 3 -3 4 -12 1 -19z m23 -43 c0 -8 -2 -15 -4
-15 -2 0 -6 7 -10 15 -3 8 -1 15 4 15 6 0 10 -7 10 -15z m34 -31 c3 -8 2 -12
-4 -9 -6 3 -10 10 -10 16 0 14 7 11 14 -7z m-27 -46 c-3 -8 -6 -5 -6 6 -1 11
2 17 5 13 3 -3 4 -12 1 -19z m-624 -105 c12 -19 19 -103 9 -103 -12 0 -17 14
-27 73 -5 33 5 51 18 30z m411 -28 c3 -8 1 -15 -4 -15 -6 0 -10 7 -10 15 0 8
2 15 4 15 2 0 6 -7 10 -15z m11 -67 c2 -18 4 -34 4 -35 1 -2 1 -6 2 -10 1 -5
11 -21 22 -37 20 -28 20 -29 1 -22 -15 6 -17 5 -6 -5 6 -7 12 -21 12 -30 0
-10 9 -21 20 -24 25 -8 42 -38 33 -61 -6 -16 -7 -15 -21 2 -13 16 -14 17 -9 2
4 -10 2 -18 -3 -18 -14 0 -51 91 -55 135 -2 22 -6 65 -10 95 -4 30 -4 52 0 48
3 -3 8 -21 10 -40z m-582 -121 c21 -8 23 -37 3 -37 -15 0 -66 59 -66 75 0 5
10 -1 23 -12 12 -11 30 -23 40 -26z m671 -139 c-3 -4 -9 -8 -15 -8 -5 0 -9 4
-9 8 0 5 7 9 15 9 8 0 12 -4 9 -9z m-3 -71 c11 -21 17 -42 14 -48 -9 -14 -27
1 -21 17 3 8 1 14 -3 14 -9 0 -31 53 -31 74 0 13 14 -5 41 -57z m231 -31 c-1
-4 3 -14 9 -22 9 -11 8 -14 -5 -14 -9 0 -18 11 -22 28 -3 15 -8 36 -11 47 -4
17 -2 16 13 -5 11 -14 18 -29 16 -34z m798 37 c0 -13 -151 -103 -171 -103 -22
0 5 21 84 64 91 51 87 49 87 39z m-1010 -77 c0 -3 -4 -8 -10 -11 -5 -3 -10 -1
-10 4 0 6 5 11 10 11 6 0 10 -2 10 -4z m246 -21 c20 -10 23 -15 12 -15 -10 0
-18 -5 -18 -12 0 -12 -29 21 -30 35 0 10 4 9 36 -8z m29 -34 c-3 -5 -1 -12 5
-16 6 -4 8 -11 5 -16 -11 -17 -22 -9 -20 14 3 26 3 27 11 27 3 0 3 -4 -1 -9z
m-25 -25 c0 -3 -4 -8 -10 -11 -5 -3 -10 -1 -10 4 0 6 5 11 10 11 6 0 10 -2 10
-4z m24 -83 c12 -36 -2 -27 -19 13 -8 20 -15 39 -15 42 0 12 27 -33 34 -55z
m43 -75 c16 -24 30 -52 33 -62 9 -30 51 -29 141 4 45 16 84 28 86 26 3 -2 -5
-7 -16 -11 -12 -3 -19 -11 -16 -16 3 -5 -1 -6 -9 -3 -9 3 -34 -3 -56 -15 -22
-12 -47 -21 -55 -21 -8 0 -16 -6 -16 -12 -3 -35 -6 -38 -30 -38 -5 0 -7 5 -4
10 3 6 1 10 -4 10 -15 0 -14 -16 3 -43 9 -14 11 -29 6 -42 -6 -13 -9 -15 -10
-5 0 8 -14 42 -30 75 -17 33 -30 74 -30 93 0 18 -7 46 -15 62 -23 44 -9 36 22
-12z m705 31 c-49 -19 -182 -32 -212 -20 l-25 9 22 9 c12 4 70 9 130 10 76 1
101 -1 85 -8z m-416 -67 c-14 -14 -17 -14 -14 -2 3 17 20 31 27 24 3 -2 -3
-12 -13 -22z m263 -158 c42 -4 61 -11 61 -20 0 -8 -8 -14 -17 -14 -14 0 -15
-2 -4 -9 8 -5 9 -11 3 -15 -6 -3 -17 0 -24 8 -8 7 -24 17 -36 20 -30 10 -41
-19 -16 -41 17 -14 17 -14 -6 -1 -27 16 -44 45 -56 92 l-7 29 21 -21 c14 -14
40 -23 81 -28z m447 -23 c27 -5 75 -9 107 -9 57 1 77 -5 64 -19 -10 -9 -135
-10 -178 0 -42 9 -92 44 -83 58 4 6 13 4 23 -5 10 -9 40 -20 67 -25z m-316 -1
c21 -7 17 -8 -17 -7 -24 0 -43 4 -43 9 0 10 26 9 60 -2z m1660 -617 c0 -1 -4
-4 -9 -8 -12 -7 -43 24 -36 35 4 7 45 -17 45 -27z"/>
<path d="M2047 3143 c-27 -64 -48 -125 -101 -310 -37 -127 -42 -158 -27 -167
29 -18 78 56 139 209 42 105 65 141 104 166 29 18 42 20 113 13 44 -4 121 -8
172 -8 83 1 99 4 155 32 35 18 86 52 113 76 l50 45 -346 1 -346 0 -26 -57z"/>
<path d="M2948 3193 c0 -5 -2 -12 -3 -18 -1 -5 -7 -21 -13 -35 -37 -84 -51
-123 -47 -130 3 -5 -2 -10 -11 -12 -17 -3 -30 -68 -14 -68 13 0 40 30 40 43 0
7 9 20 20 30 11 9 20 26 20 37 0 11 5 20 10 20 6 0 10 7 10 16 0 9 5 12 12 8
7 -4 8 -3 4 4 -7 11 11 51 29 64 6 5 5 8 -3 8 -10 0 -10 5 -2 20 10 18 8 20
-20 20 -16 0 -31 -3 -32 -7z"/>
<path d="M3020 3189 c0 -5 4 -7 10 -4 5 3 15 -3 22 -15 13 -20 30 -28 26 -11
-2 5 6 17 17 25 19 14 17 15 -27 16 -27 0 -48 -5 -48 -11z"/>
<path d="M3168 3188 c16 -16 15 -31 0 -22 -7 4 -6 -1 3 -12 9 -10 14 -24 12
-31 -6 -17 16 -26 30 -11 7 7 25 30 41 51 l28 37 -63 0 c-49 0 -60 -3 -51 -12z"/>
<path d="M3331 3115 c-30 -47 -58 -85 -61 -85 -4 0 -13 -12 -21 -27 -8 -16
-22 -37 -32 -48 -54 -59 -84 -111 -76 -133 12 -31 78 -34 134 -5 17 8 64 19
107 23 67 6 85 12 152 54 54 34 93 68 132 117 30 38 58 69 63 69 7 0 61 69 84
107 7 11 -32 13 -210 13 l-218 0 -54 -85z"/>
<path d="M2507 2893 c-15 -15 -6 -33 17 -33 35 0 70 -15 97 -42 56 -54 130
-149 186 -238 112 -179 132 -207 163 -233 26 -22 34 -25 55 -15 20 9 34 7 75
-11 69 -30 96 -26 93 14 -3 47 -12 108 -18 123 -3 8 -7 59 -10 114 l-6 100 41
40 c22 23 37 45 33 49 -5 5 -58 13 -118 19 -61 5 -138 17 -170 26 -33 9 -98
24 -145 35 -47 10 -110 26 -140 34 -65 19 -144 28 -153 18z"/>
<path d="M1795 2650 c-27 -11 -60 -20 -73 -20 -29 0 -64 -18 -57 -29 2 -5 38
-12 79 -16 91 -8 177 16 175 50 0 12 -3 15 -6 7 -4 -10 -9 -8 -20 7 -17 26
-34 26 -98 1z"/>
<path d="M1569 2541 c-28 -28 -37 -51 -21 -51 4 0 13 9 20 20 7 12 17 18 22
15 6 -3 10 1 10 10 0 9 6 15 13 14 23 -3 37 1 37 11 0 22 -53 9 -81 -19z"/>
<path d="M1716 2558 c5 -7 9 -19 9 -27 0 -8 6 -16 14 -19 10 -3 12 0 8 12 -4
9 -4 16 -2 16 3 0 41 -32 84 -70 44 -39 83 -66 86 -60 6 10 -19 37 -91 96 -45
37 -122 74 -108 52z"/>
<path d="M1700 2500 c0 -5 5 -10 10 -10 6 0 10 5 10 10 0 6 -4 10 -10 10 -5 0
-10 -4 -10 -10z"/>
<path d="M2384 2483 c-17 -58 -13 -87 13 -115 48 -51 18 -47 -54 7 -40 30 -88
57 -108 61 -35 6 -35 6 -35 -30 0 -33 14 -50 22 -26 2 6 9 6 17 0 12 -7 13
-11 1 -25 -11 -13 -10 -18 3 -28 8 -7 17 -21 19 -32 2 -11 14 -25 27 -31 13
-7 28 -18 32 -26 7 -10 9 -10 9 0 0 6 5 12 10 12 6 0 9 -5 8 -12 -4 -17 64
-50 76 -38 14 14 43 12 49 -2 3 -9 8 -10 16 -2 17 16 2 73 -25 91 -27 17 -31
45 -9 63 19 16 19 34 -1 51 -11 9 -14 22 -10 45 5 26 2 34 -18 48 -33 21 -32
21 -42 -11z m-102 -155 c-9 -9 -15 -9 -24 0 -9 9 -7 12 12 12 19 0 21 -3 12
-12z"/>
<path d="M1770 2489 c0 -5 5 -7 10 -4 6 3 10 8 10 11 0 2 -4 4 -10 4 -5 0 -10
-5 -10 -11z"/>
<path d="M1730 2475 c0 -8 5 -15 10 -15 6 0 10 7 10 15 0 8 -4 15 -10 15 -5 0
-10 -7 -10 -15z"/>
<path d="M1527 2473 c-4 -3 -7 -16 -6 -27 0 -19 1 -19 10 3 10 24 8 36 -4 24z"/>
<path d="M1806 2455 c4 -8 10 -12 15 -9 11 6 2 24 -11 24 -5 0 -7 -7 -4 -15z"/>
<path d="M1767 2439 c-3 -13 -1 -19 6 -16 15 5 22 37 9 37 -5 0 -12 -9 -15
-21z"/>
<path d="M1795 2400 c-7 -34 -1 -50 15 -34 14 14 17 56 3 61 -6 2 -14 -10 -18
-27z"/>
<path d="M1840 2401 c0 -17 -4 -33 -10 -36 -5 -3 -10 -10 -10 -14 0 -12 59
-35 67 -27 11 11 13 75 3 81 -6 4 -11 -3 -11 -14 -2 -34 -4 -39 -13 -48 -5 -4
-6 3 -2 19 3 15 2 29 -4 33 -5 3 -7 12 -3 20 3 8 0 15 -6 15 -6 0 -11 -13 -11
-29z"/>
<path d="M2805 2349 c-9 -13 -5 -16 20 -21 12 -2 21 3 23 15 4 19 -32 25 -43
6z"/>
<path d="M2570 2119 c0 -17 4 -28 10 -24 6 3 10 17 10 31 0 13 -4 24 -10 24
-5 0 -10 -14 -10 -31z"/>
<path d="M2530 1973 c-21 -26 -22 -34 -15 -133 4 -58 8 -116 10 -130 1 -14 3
-38 4 -54 l1 -30 33 35 c17 20 39 38 47 41 13 4 13 7 1 22 -17 20 -30 88 -38
199 -3 42 -9 77 -13 77 -5 0 -18 -12 -30 -27z"/>
<path d="M1961 1803 c-1 -24 4 -43 9 -43 12 0 12 37 0 65 -7 15 -9 10 -9 -22z"/>
<path d="M255 1609 c-46 -47 -99 -83 -171 -115 -70 -32 -84 -42 -84 -61 0 -20
3 -22 19 -13 23 12 61 13 78 2 6 -4 17 -37 23 -72 7 -36 15 -85 20 -110 4 -25
11 -67 14 -94 10 -68 46 -277 52 -298 3 -9 11 -61 19 -115 7 -54 25 -152 39
-218 13 -65 23 -123 20 -126 -2 -4 0 -10 5 -13 5 -3 12 -30 16 -59 11 -88 15
-109 37 -192 11 -44 21 -89 22 -100 2 -18 11 -20 90 -23 l87 -3 -5 33 c-12 68
-28 166 -41 253 -8 50 -19 117 -24 150 -6 33 -13 87 -16 120 -12 115 -16 141
-41 218 -13 43 -24 97 -24 121 0 23 -9 76 -21 117 -21 74 -39 172 -40 219 -2
35 -38 167 -59 215 -21 47 -17 61 21 81 34 17 36 27 8 65 -22 31 -28 34 -44
18z"/>
<path d="M2070 1596 c0 -2 7 -9 15 -16 9 -7 15 -8 15 -2 0 5 -7 12 -15 16 -8
3 -15 4 -15 2z"/>
<path d="M2760 1590 c20 -13 63 -13 55 0 -3 6 -21 10 -38 10 -24 0 -28 -3 -17
-10z"/>
<path d="M510 1494 c-25 -7 -62 -14 -82 -14 -35 0 -57 -14 -44 -28 14 -13 94
-17 144 -5 63 14 70 18 56 40 -14 23 -22 24 -74 7z"/>
<path d="M2714 1454 c10 -53 21 -62 54 -44 39 22 42 57 5 66 -15 3 -36 8 -47
11 -17 5 -18 1 -12 -33z"/>
<path d="M3570 1356 c0 -10 33 -36 46 -36 19 0 18 26 -2 34 -18 7 -44 8 -44 2z"/>
<path d="M2 1330 c0 -14 2 -19 5 -12 2 6 2 18 0 25 -3 6 -5 1 -5 -13z"/>
<path d="M3542 1218 c-14 -18 -2 -68 20 -82 27 -17 72 4 76 35 4 30 -13 47
-55 55 -19 4 -33 1 -41 -8z"/>
<path d="M2040 916 c-23 -29 1 -127 35 -140 60 -23 70 10 30 91 -28 55 -47 70
-65 49z"/>
</g>
</svg>
